  0
SECTION
  2
ENTITIES
  0
LINE
 10
-12.000000
 11
-11.869000
 20
6.000000
 21
7.247000
  0
LINE
 10
-11.869000
 11
-11.481000
 20
7.247000
 21
8.440000
  0
LINE
 10
-11.481000
 11
-10.854000
 20
8.440000
 21
9.527000
  0
LINE
 10
-10.854000
 11
-10.015000
 20
9.527000
 21
10.459000
  0
LINE
 10
-10.015000
 11
-9.000000
 20
10.459000
 21
11.196000
  0
LINE
 10
-9.000000
 11
-7.854000
 20
11.196000
 21
11.706000
  0
LINE
 10
-7.854000
 11
-6.627000
 20
11.706000
 21
11.967000
  0
LINE
 10
-6.627000
 11
-6.000000
 20
11.967000
 21
11.967000
  0
LINE
 10
-6.000000
 11
-6.000000
 20
11.967000
 21
12.000000
  0
LINE
 10
-6.000000
 11
38.000000
 20
12.000000
 21
12.000000
  0
LINE
 10
38.000000
 11
38.000000
 20
12.000000
 21
11.967000
  0
LINE
 10
38.000000
 11
38.627000
 20
11.967000
 21
11.967000
  0
LINE
 10
38.627000
 11
39.854000
 20
11.967000
 21
11.706000
  0
LINE
 10
39.854000
 11
41.000000
 20
11.706000
 21
11.196000
  0
LINE
 10
41.000000
 11
42.015000
 20
11.196000
 21
10.459000
  0
LINE
 10
42.015000
 11
42.854000
 20
10.459000
 21
9.527000
  0
LINE
 10
42.854000
 11
43.481000
 20
9.527000
 21
8.440000
  0
LINE
 10
43.481000
 11
43.869000
 20
8.440000
 21
7.247000
  0
LINE
 10
43.869000
 11
44.000000
 20
7.247000
 21
6.000000
  0
LINE
 10
44.000000
 11
43.869000
 20
6.000000
 21
4.753000
  0
LINE
 10
43.869000
 11
43.481000
 20
4.753000
 21
3.560000
  0
LINE
 10
43.481000
 11
42.854000
 20
3.560000
 21
2.473000
  0
LINE
 10
42.854000
 11
42.015000
 20
2.473000
 21
1.541000
  0
LINE
 10
42.015000
 11
41.000000
 20
1.541000
 21
0.804000
  0
LINE
 10
41.000000
 11
39.854000
 20
0.804000
 21
0.294000
  0
LINE
 10
39.854000
 11
38.627000
 20
0.294000
 21
0.033000
  0
LINE
 10
38.627000
 11
38.000000
 20
0.033000
 21
0.033000
  0
LINE
 10
38.000000
 11
38.000000
 20
0.033000
 21
0.000000
  0
LINE
 10
38.000000
 11
-6.000000
 20
0.000000
 21
0.000000
  0
LINE
 10
-6.000000
 11
-6.000000
 20
0.000000
 21
0.033000
  0
LINE
 10
-6.000000
 11
-6.627000
 20
0.033000
 21
0.033000
  0
LINE
 10
-6.627000
 11
-7.854000
 20
0.033000
 21
0.294000
  0
LINE
 10
-7.854000
 11
-9.000000
 20
0.294000
 21
0.804000
  0
LINE
 10
-9.000000
 11
-10.015000
 20
0.804000
 21
1.541000
  0
LINE
 10
-10.015000
 11
-10.854000
 20
1.541000
 21
2.473000
  0
LINE
 10
-10.854000
 11
-11.481000
 20
2.473000
 21
3.560000
  0
LINE
 10
-11.481000
 11
-11.869000
 20
3.560000
 21
4.753000
  0
LINE
 10
-11.869000
 11
-12.000000
 20
4.753000
 21
6.000000
  0
LINE
 10
-7.500000
 11
-7.467000
 20
6.000000
 21
6.312000
  0
LINE
 10
-7.467000
 11
-7.370000
 20
6.312000
 21
6.610000
  0
LINE
 10
-7.370000
 11
-7.214000
 20
6.610000
 21
6.882000
  0
LINE
 10
-7.214000
 11
-7.004000
 20
6.882000
 21
7.115000
  0
LINE
 10
-7.004000
 11
-6.750000
 20
7.115000
 21
7.299000
  0
LINE
 10
-6.750000
 11
-6.464000
 20
7.299000
 21
7.427000
  0
LINE
 10
-6.464000
 11
-6.157000
 20
7.427000
 21
7.492000
  0
LINE
 10
-6.157000
 11
-5.843000
 20
7.492000
 21
7.492000
  0
LINE
 10
-5.843000
 11
-5.536000
 20
7.492000
 21
7.427000
  0
LINE
 10
-5.536000
 11
-5.250000
 20
7.427000
 21
7.299000
  0
LINE
 10
-5.250000
 11
-4.996000
 20
7.299000
 21
7.115000
  0
LINE
 10
-4.996000
 11
-4.786000
 20
7.115000
 21
6.882000
  0
LINE
 10
-4.786000
 11
-4.630000
 20
6.882000
 21
6.610000
  0
LINE
 10
-4.630000
 11
-4.533000
 20
6.610000
 21
6.312000
  0
LINE
 10
-4.533000
 11
-4.500000
 20
6.312000
 21
6.000000
  0
LINE
 10
-4.500000
 11
-4.533000
 20
6.000000
 21
5.688000
  0
LINE
 10
-4.533000
 11
-4.630000
 20
5.688000
 21
5.390000
  0
LINE
 10
-4.630000
 11
-4.786000
 20
5.390000
 21
5.118000
  0
LINE
 10
-4.786000
 11
-4.996000
 20
5.118000
 21
4.885000
  0
LINE
 10
-4.996000
 11
-5.250000
 20
4.885000
 21
4.701000
  0
LINE
 10
-5.250000
 11
-5.536000
 20
4.701000
 21
4.573000
  0
LINE
 10
-5.536000
 11
-5.843000
 20
4.573000
 21
4.508000
  0
LINE
 10
-5.843000
 11
-6.157000
 20
4.508000
 21
4.508000
  0
LINE
 10
-6.157000
 11
-6.464000
 20
4.508000
 21
4.573000
  0
LINE
 10
-6.464000
 11
-6.750000
 20
4.573000
 21
4.701000
  0
LINE
 10
-6.750000
 11
-7.004000
 20
4.701000
 21
4.885000
  0
LINE
 10
-7.004000
 11
-7.214000
 20
4.885000
 21
5.118000
  0
LINE
 10
-7.214000
 11
-7.370000
 20
5.118000
 21
5.390000
  0
LINE
 10
-7.370000
 11
-7.467000
 20
5.390000
 21
5.688000
  0
LINE
 10
-7.467000
 11
-7.500000
 20
5.688000
 21
6.000000
  0
LINE
 10
36.500000
 11
36.533000
 20
6.000000
 21
6.312000
  0
LINE
 10
36.533000
 11
36.630000
 20
6.312000
 21
6.610000
  0
LINE
 10
36.630000
 11
36.786000
 20
6.610000
 21
6.882000
  0
LINE
 10
36.786000
 11
36.996000
 20
6.882000
 21
7.115000
  0
LINE
 10
36.996000
 11
37.250000
 20
7.115000
 21
7.299000
  0
LINE
 10
37.250000
 11
37.536000
 20
7.299000
 21
7.427000
  0
LINE
 10
37.536000
 11
37.843000
 20
7.427000
 21
7.492000
  0
LINE
 10
37.843000
 11
38.157000
 20
7.492000
 21
7.492000
  0
LINE
 10
38.157000
 11
38.464000
 20
7.492000
 21
7.427000
  0
LINE
 10
38.464000
 11
38.750000
 20
7.427000
 21
7.299000
  0
LINE
 10
38.750000
 11
39.004000
 20
7.299000
 21
7.115000
  0
LINE
 10
39.004000
 11
39.214000
 20
7.115000
 21
6.882000
  0
LINE
 10
39.214000
 11
39.370000
 20
6.882000
 21
6.610000
  0
LINE
 10
39.370000
 11
39.467000
 20
6.610000
 21
6.312000
  0
LINE
 10
39.467000
 11
39.500000
 20
6.312000
 21
6.000000
  0
LINE
 10
39.500000
 11
39.467000
 20
6.000000
 21
5.688000
  0
LINE
 10
39.467000
 11
39.370000
 20
5.688000
 21
5.390000
  0
LINE
 10
39.370000
 11
39.214000
 20
5.390000
 21
5.118000
  0
LINE
 10
39.214000
 11
39.004000
 20
5.118000
 21
4.885000
  0
LINE
 10
39.004000
 11
38.750000
 20
4.885000
 21
4.701000
  0
LINE
 10
38.750000
 11
38.464000
 20
4.701000
 21
4.573000
  0
LINE
 10
38.464000
 11
38.157000
 20
4.573000
 21
4.508000
  0
LINE
 10
38.157000
 11
37.843000
 20
4.508000
 21
4.508000
  0
LINE
 10
37.843000
 11
37.536000
 20
4.508000
 21
4.573000
  0
LINE
 10
37.536000
 11
37.250000
 20
4.573000
 21
4.701000
  0
LINE
 10
37.250000
 11
36.996000
 20
4.701000
 21
4.885000
  0
LINE
 10
36.996000
 11
36.786000
 20
4.885000
 21
5.118000
  0
LINE
 10
36.786000
 11
36.630000
 20
5.118000
 21
5.390000
  0
LINE
 10
36.630000
 11
36.533000
 20
5.390000
 21
5.688000
  0
LINE
 10
36.533000
 11
36.500000
 20
5.688000
 21
6.000000
  0
ENDSEC
  0
EOF
