999
dxflib 2.2.0.0
  0
SECTION
  2
HEADER
  9
$ACADVER
  1
AC1015
  9
$HANDSEED
  5
FFFF
  9
$DIMASZ
 40
2.5
  9
$PLIMMIN
 10
0.0
 20
0.0
  9
$DIMEXE
 40
1.25
  9
$DIMGAP
 40
0.625
  9
$PLIMMAX
 10
210.0
 20
297.0
  9
$INSUNITS
 70
4
  9
$DIMEXO
 40
0.625
  9
$DIMTXT
 40
2.5
  9
$CLAYER
  8
Etch
  0
ENDSEC
  0
SECTION
  2
TABLES
  0
TABLE
  2
VPORT
  5
8
100
AcDbSymbolTable
 70
1
  0
VPORT
  5
30
100
AcDbSymbolTableRecord
100
AcDbViewportTableRecord
  2
*Active
 70
0
 10
0.0
 20
0.0
 11
1.0
 21
1.0
 12
286.3055555555554861
 22
148.5
 13
0.0
 23
0.0
 14
10.0
 24
10.0
 15
10.0
 25
10.0
 16
0.0
 26
0.0
 36
1.0
 17
0.0
 27
0.0
 37
0.0
 40
297.0
 41
1.92798353909465
 42
50.0
 43
0.0
 44
0.0
 50
0.0
 51
0.0
 71
0
 72
100
 73
1
 74
3
 75
1
 76
1
 77
0
 78
0
281
0
 65
1
110
0.0
120
0.0
130
0.0
111
1.0
121
0.0
131
0.0
112
0.0
122
1.0
132
0.0
 79
0
146
0.0
  0
ENDTAB
  0
TABLE
  2
LTYPE
  5
5
100
AcDbSymbolTable
 70
21
  0
LTYPE
  5
14
100
AcDbSymbolTableRecord
100
AcDbLinetypeTableRecord
  2
ByBlock
 70
0
  3

 72
65
 73
0
 40
0.0
  0
LTYPE
  5
15
100
AcDbSymbolTableRecord
100
AcDbLinetypeTableRecord
  2
ByLayer
 70
0
  3

 72
65
 73
0
 40
0.0
  0
LTYPE
  5
16
100
AcDbSymbolTableRecord
100
AcDbLinetypeTableRecord
  2
CONTINUOUS
 70
0
  3
Solid line
 72
65
 73
0
 40
0.0
  0
LTYPE
  5
31
100
AcDbSymbolTableRecord
100
AcDbLinetypeTableRecord
  2
DOT
 70
0
  3
Dot . . . . . . . . . . . . . . . . . . . . . .
 72
65
 73
2
 40
6.3499999999999996
 49
0.0
 74
0
 49
-6.3499999999999996
 74
0
  0
LTYPE
  5
32
100
AcDbSymbolTableRecord
100
AcDbLinetypeTableRecord
  2
DOT2
 70
0
  3
Dot (.5x) .....................................
 72
65
 73
2
 40
3.1749999999999998
 49
0.0
 74
0
 49
-3.1749999999999998
 74
0
  0
LTYPE
  5
33
100
AcDbSymbolTableRecord
100
AcDbLinetypeTableRecord
  2
DOTX2
 70
0
  3
Dot (2x) .  .  .  .  .  .  .  .  .  .  .  .  .
 72
65
 73
2
 40
12.6999999999999993
 49
0.0
 74
0
 49
-12.6999999999999993
 74
0
  0
LTYPE
  5
34
100
AcDbSymbolTableRecord
100
AcDbLinetypeTableRecord
  2
DASHED
 70
0
  3
Dashed __ __ __ __ __ __ __ __ __ __ __ __ __ _
 72
65
 73
2
 40
19.0500000000000007
 49
12.6999999999999993
 74
0
 49
-6.3499999999999996
 74
0
  0
LTYPE
  5
35
100
AcDbSymbolTableRecord
100
AcDbLinetypeTableRecord
  2
DASHED2
 70
0
  3
Dashed (.5x) _ _ _ _ _ _ _ _ _ _ _ _ _ _ _ _ _
 72
65
 73
2
 40
9.5250000000000004
 49
6.3499999999999996
 74
0
 49
-3.1749999999999998
 74
0
  0
LTYPE
  5
36
100
AcDbSymbolTableRecord
100
AcDbLinetypeTableRecord
  2
DASHEDX2
 70
0
  3
Dashed (2x) ____  ____  ____  ____  ____  ___
 72
65
 73
2
 40
38.1000000000000014
 49
25.3999999999999986
 74
0
 49
-12.6999999999999993
 74
0
  0
LTYPE
  5
37
100
AcDbSymbolTableRecord
100
AcDbLinetypeTableRecord
  2
DASHDOT
 70
0
  3
Dash dot __ . __ . __ . __ . __ . __ . __ . __
 72
65
 73
4
 40
25.3999999999999986
 49
12.6999999999999993
 74
0
 49
-6.3499999999999996
 74
0
 49
0.0
 74
0
 49
-6.3499999999999996
 74
0
  0
LTYPE
  5
38
100
AcDbSymbolTableRecord
100
AcDbLinetypeTableRecord
  2
DASHDOT2
 70
0
  3
Dash dot (.5x) _._._._._._._._._._._._._._._.
 72
65
 73
4
 40
12.6999999999999993
 49
6.3499999999999996
 74
0
 49
-3.1749999999999998
 74
0
 49
0.0
 74
0
 49
-3.1749999999999998
 74
0
  0
LTYPE
  5
39
100
AcDbSymbolTableRecord
100
AcDbLinetypeTableRecord
  2
DASHDOTX2
 70
0
  3
Dash dot (2x) ____  .  ____  .  ____  .  ___
 72
65
 73
4
 40
50.7999999999999972
 49
25.3999999999999986
 74
0
 49
-12.6999999999999993
 74
0
 49
0.0
 74
0
 49
-12.6999999999999993
 74
0
  0
LTYPE
  5
3A
100
AcDbSymbolTableRecord
100
AcDbLinetypeTableRecord
  2
DIVIDE
 70
0
  3
Divide ____ . . ____ . . ____ . . ____ . . ____
 72
65
 73
6
 40
31.75
 49
12.6999999999999993
 74
0
 49
-6.3499999999999996
 74
0
 49
0.0
 74
0
 49
-6.3499999999999996
 74
0
 49
0.0
 74
0
 49
-6.3499999999999996
 74
0
  0
LTYPE
  5
3B
100
AcDbSymbolTableRecord
100
AcDbLinetypeTableRecord
  2
DIVIDE2
 70
0
  3
Divide (.5x) __..__..__..__..__..__..__..__.._
 72
65
 73
6
 40
15.875
 49
6.3499999999999996
 74
0
 49
-3.1749999999999998
 74
0
 49
0.0
 74
0
 49
-3.1749999999999998
 74
0
 49
0.0
 74
0
 49
-3.1749999999999998
 74
0
  0
LTYPE
  5
3C
100
AcDbSymbolTableRecord
100
AcDbLinetypeTableRecord
  2
DIVIDEX2
 70
0
  3
Divide (2x) ________  .  .  ________  .  .  _
 72
65
 73
6
 40
63.5
 49
25.3999999999999986
 74
0
 49
-12.6999999999999993
 74
0
 49
0.0
 74
0
 49
-12.6999999999999993
 74
0
 49
0.0
 74
0
 49
-12.6999999999999993
 74
0
  0
LTYPE
  5
3D
100
AcDbSymbolTableRecord
100
AcDbLinetypeTableRecord
  2
CENTER
 70
0
  3
Center ____ _ ____ _ ____ _ ____ _ ____ _ ____
 72
65
 73
4
 40
50.7999999999999972
 49
31.75
 74
0
 49
-6.3499999999999996
 74
0
 49
6.3499999999999996
 74
0
 49
-6.3499999999999996
 74
0
  0
LTYPE
  5
3E
100
AcDbSymbolTableRecord
100
AcDbLinetypeTableRecord
  2
CENTER2
 70
0
  3
Center (.5x) ___ _ ___ _ ___ _ ___ _ ___ _ ___
 72
65
 73
4
 40
28.5749999999999993
 49
19.0500000000000007
 74
0
 49
-3.1749999999999998
 74
0
 49
3.1749999999999998
 74
0
 49
-3.1749999999999998
 74
0
  0
LTYPE
  5
3F
100
AcDbSymbolTableRecord
100
AcDbLinetypeTableRecord
  2
CENTERX2
 70
0
  3
Center (2x) ________  __  ________  __  _____
 72
65
 73
4
 40
101.5999999999999943
 49
63.5
 74
0
 49
-12.6999999999999993
 74
0
 49
12.6999999999999993
 74
0
 49
-12.6999999999999993
 74
0
  0
LTYPE
  5
40
100
AcDbSymbolTableRecord
100
AcDbLinetypeTableRecord
  2
BORDER
 70
0
  3
Border __ __ . __ __ . __ __ . __ __ . __ __ .
 72
65
 73
6
 40
44.4500000000000028
 49
12.6999999999999993
 74
0
 49
-6.3499999999999996
 74
0
 49
12.6999999999999993
 74
0
 49
-6.3499999999999996
 74
0
 49
0.0
 74
0
 49
-6.3499999999999996
 74
0
  0
LTYPE
  5
41
100
AcDbSymbolTableRecord
100
AcDbLinetypeTableRecord
  2
BORDER2
 70
0
  3
Border (.5x) __.__.__.__.__.__.__.__.__.__.__.
 72
65
 73
6
 40
22.2250000000000014
 49
6.3499999999999996
 74
0
 49
-3.1749999999999998
 74
0
 49
6.3499999999999996
 74
0
 49
-3.1749999999999998
 74
0
 49
0.0
 74
0
 49
-3.1749999999999998
 74
0
  0
LTYPE
  5
42
100
AcDbSymbolTableRecord
100
AcDbLinetypeTableRecord
  2
BORDERX2
 70
0
  3
Border (2x) ____  ____  .  ____  ____  .  ___
 72
65
 73
6
 40
88.9000000000000057
 49
25.3999999999999986
 74
0
 49
-12.6999999999999993
 74
0
 49
25.3999999999999986
 74
0
 49
-12.6999999999999993
 74
0
 49
0.0
 74
0
 49
-12.6999999999999993
 74
0
  0
ENDTAB
  0
TABLE
  2
LAYER
  5
2
100
AcDbSymbolTable
 70
4
  0
LAYER
  5
10
100
AcDbSymbolTableRecord
100
AcDbLayerTableRecord
  2
0
 70
0
 62
7
420
0
  6
CONTINUOUS
370
25
390
F
  0
LAYER
  5
43
100
AcDbSymbolTableRecord
100
AcDbLayerTableRecord
  2
Drawings
 70
1
 62
-5
420
255
  6
CONTINUOUS
370
0
390
F
  0
LAYER
  5
44
100
AcDbSymbolTableRecord
100
AcDbLayerTableRecord
  2
Cut
 70
0
 62
7
420
0
  6
CONTINUOUS
370
0
390
F
  0
LAYER
  5
45
100
AcDbSymbolTableRecord
100
AcDbLayerTableRecord
  2
Etch
 70
0
 62
1
420
16711680
  6
CONTINUOUS
370
0
390
F
  0
ENDTAB
  0
TABLE
  2
STYLE
  5
3
100
AcDbSymbolTable
 70
1
  0
STYLE
  5
11
100
AcDbSymbolTableRecord
100
AcDbTextStyleTableRecord
  2
Standard
 70
0
 40
0.0
 41
0.75
 50
0.0
 71
0
 42
2.5
  3
txt
  4

  0
ENDTAB
  0
TABLE
  2
VIEW
  5
6
100
AcDbSymbolTable
 70
0
  0
ENDTAB
  0
TABLE
  2
UCS
  5
7
100
AcDbSymbolTable
 70
0
  0
ENDTAB
  0
TABLE
  2
APPID
  5
9
100
AcDbSymbolTable
 70
1
  0
APPID
  5
12
100
AcDbSymbolTableRecord
100
AcDbRegAppTableRecord
  2
ACAD
 70
0
  0
ENDTAB
  0
TABLE
  2
DIMSTYLE
  5
A
100
AcDbSymbolTable
 70
1
100
AcDbDimStyleTable
 71
0
  0
DIMSTYLE
105
27
100
AcDbSymbolTableRecord
100
AcDbDimStyleTableRecord
  2
Standard
 41
2.5
 42
0.625
 43
3.75
 44
1.25
 70
0
 73
0
 74
0
 77
1
 78
8
140
2.5
141
2.5
143
0.03937007874016
147
0.625
171
3
172
1
271
2
272
2
274
3
278
44
283
0
284
8
340
11
  0
ENDTAB
  0
TABLE
  2
BLOCK_RECORD
  5
1
100
AcDbSymbolTable
 70
1
  0
BLOCK_RECORD
  5
1F
100
AcDbSymbolTableRecord
100
AcDbBlockTableRecord
  2
*Model_Space
340
22
  0
BLOCK_RECORD
  5
1B
100
AcDbSymbolTableRecord
100
AcDbBlockTableRecord
  2
*Paper_Space
340
1E
  0
BLOCK_RECORD
  5
23
100
AcDbSymbolTableRecord
100
AcDbBlockTableRecord
  2
*Paper_Space0
340
26
  0
ENDTAB
  0
ENDSEC
  0
SECTION
  2
BLOCKS
  0
BLOCK
  5
20
100
AcDbEntity
  8
0
100
AcDbBlockBegin
  2
*Model_Space
 70
0
 10
0.0
 20
0.0
 30
0.0
  3
*Model_Space
  1

  0
ENDBLK
  5
21
100
AcDbEntity
  8
0
100
AcDbBlockEnd
  0
BLOCK
  5
1C
100
AcDbEntity
 67
1
  8
0
100
AcDbBlockBegin
  2
*Paper_Space
 70
0
 10
0.0
 20
0.0
 30
0.0
  3
*Paper_Space
  1

  0
ENDBLK
  5
1D
100
AcDbEntity
 67
1
  8
0
100
AcDbBlockEnd
  0
BLOCK
  5
24
100
AcDbEntity
  8
0
100
AcDbBlockBegin
  2
*Paper_Space0
 70
0
 10
0.0
 20
0.0
 30
0.0
  3
*Paper_Space0
  1

  0
ENDBLK
  5
25
100
AcDbEntity
  8
0
100
AcDbBlockEnd
  0
ENDSEC
  0
SECTION
  2
ENTITIES
  0
LINE
  5
46
100
AcDbEntity
100
AcDbLine
  8
Drawings
 62
256
370
-1
  6
ByLayer
 10
0.0
 20
0.0
 30
0.0
 11
0.0
 21
300.0
 31
0.0
  0
LINE
  5
47
100
AcDbEntity
100
AcDbLine
  8
Drawings
 62
256
370
-1
  6
ByLayer
 10
0.0
 20
300.0
 30
0.0
 11
300.0
 21
300.0
 31
0.0
  0
LINE
  5
48
100
AcDbEntity
100
AcDbLine
  8
Drawings
 62
256
370
-1
  6
ByLayer
 10
300.0
 20
300.0
 30
0.0
 11
300.0
 21
0.0
 31
0.0
  0
LINE
  5
49
100
AcDbEntity
100
AcDbLine
  8
Drawings
 62
256
370
-1
  6
ByLayer
 10
300.0
 20
0.0
 30
0.0
 11
0.0
 21
0.0
 31
0.0
  0
LINE
  5
4A
100
AcDbEntity
100
AcDbLine
  8
Drawings
 62
256
370
-1
  6
ByLayer
 10
0.0
 20
150.0
 30
0.0
 11
300.0
 21
150.0
 31
0.0
  0
LINE
  5
4B
100
AcDbEntity
100
AcDbLine
  8
Drawings
 62
256
370
-1
  6
ByLayer
 10
0.0000000000000038
 20
212.5
 30
0.0
 11
300.0
 21
212.5
 31
0.0
  0
LINE
  5
4C
100
AcDbEntity
100
AcDbLine
  8
Drawings
 62
256
370
-1
  6
ByLayer
 10
-0.0000000000000115
 20
87.5
 30
0.0
 11
300.0
 21
87.5
 31
0.0
  0
CIRCLE
  5
4D
100
AcDbEntity
100
AcDbCircle
  8
Cut
 62
256
370
-1
  6
ByLayer
 10
118.0
 20
256.9993556701031139
 30
0.0
 40
1.4999288308567331
  0
CIRCLE
  5
4E
100
AcDbEntity
100
AcDbCircle
  8
Cut
 62
256
370
-1
  6
ByLayer
 10
181.9998106465726835
 20
257.0000712202236173
 30
0.0
 40
1.4998106482636746
  0
CIRCLE
  5
4F
100
AcDbEntity
100
AcDbCircle
  8
Cut
 62
256
370
-1
  6
ByLayer
 10
181.9994633887262978
 20
223.0000978071003317
 30
0.0
 40
1.5001966328019569
  0
CIRCLE
  5
50
100
AcDbEntity
100
AcDbCircle
  8
Cut
 62
256
370
-1
  6
ByLayer
 10
118.0004526179812672
 20
223.0000493004432656
 30
0.0
 40
1.5002360536985271
  0
CIRCLE
  5
51
100
AcDbEntity
100
AcDbCircle
  8
Cut
 62
256
370
-1
  6
ByLayer
 10
208.0006778146825184
 20
256.9999150699238157
 30
0.0
 40
1.5002513336714431
  0
CIRCLE
  5
52
100
AcDbEntity
100
AcDbCircle
  8
Cut
 62
256
370
-1
  6
ByLayer
 10
272.0002854082393924
 20
257.0002475171115179
 30
0.0
 40
1.5000386927740104
  0
CIRCLE
  5
53
100
AcDbEntity
100
AcDbCircle
  8
Cut
 62
256
370
-1
  6
ByLayer
 10
272.0006004078174442
 20
222.9997160489021724
 30
0.0
 40
1.5004573379936994
  0
CIRCLE
  5
54
100
AcDbEntity
100
AcDbCircle
  8
Cut
 62
256
370
-1
  6
ByLayer
 10
208.0004778795205027
 20
223.0000696771661239
 30
0.0
 40
1.5001456700023919
  0
CIRCLE
  5
55
100
AcDbEntity
100
AcDbCircle
  8
Cut
 62
256
370
-1
  6
ByLayer
 10
62.0001307901907097
 20
212.5
 30
0.0
 40
1.5005011308923022
  0
CIRCLE
  5
56
100
AcDbEntity
100
AcDbCircle
  8
Cut
 62
256
370
-1
  6
ByLayer
 10
20.0000138212281975
 20
212.5005503539648828
 30
0.0
 40
1.5000139221904274
  0
CIRCLE
  5
57
100
AcDbEntity
100
AcDbCircle
  8
Cut
 62
256
370
-1
  6
ByLayer
 10
100.0003856885839895
 20
163.4993060704636889
 30
0.0
 40
1.5006939790986273
  0
CIRCLE
  5
58
100
AcDbEntity
100
AcDbCircle
  8
Cut
 62
256
370
-1
  6
ByLayer
 10
100.000026510560744
 20
136.4997640013080229
 30
0.0
 40
1.5002359989262102
  0
CIRCLE
  5
59
100
AcDbEntity
100
AcDbCircle
  8
Cut
 62
256
370
-1
  6
ByLayer
 10
62.0
 20
87.5006153846152586
 30
0.0
 40
1.4999563563671634
  0
CIRCLE
  5
5A
100
AcDbEntity
100
AcDbCircle
  8
Cut
 62
256
370
-1
  6
ByLayer
 10
19.9996180159634811
 20
87.5
 30
0.0
 40
1.5001580323307717
  0
CIRCLE
  5
5B
100
AcDbEntity
100
AcDbCircle
  8
Cut
 62
256
370
-1
  6
ByLayer
 10
132.4997213177645961
 20
185.0003876767490851
 30
0.0
 40
1.0001101079166226
  0
CIRCLE
  5
5C
100
AcDbEntity
100
AcDbCircle
  8
Cut
 62
256
370
-1
  6
ByLayer
 10
167.500100613763351
 20
185.0001807679780086
 30
0.0
 40
0.9997379870747342
  0
CIRCLE
  5
5D
100
AcDbEntity
100
AcDbCircle
  8
Cut
 62
256
370
-1
  6
ByLayer
 10
167.4998980567508511
 20
115.0000334545318594
 30
0.0
 40
0.9998980573105072
  0
CIRCLE
  5
5E
100
AcDbEntity
100
AcDbCircle
  8
Cut
 62
256
370
-1
  6
ByLayer
 10
132.5004226050080263
 20
114.9997543598776701
 30
0.0
 40
1.0002363060991841
  0
CIRCLE
  5
5F
100
AcDbEntity
100
AcDbCircle
  8
Cut
 62
256
370
-1
  6
ByLayer
 10
217.9999779999999987
 20
100.0
 30
0.0
 40
1.4999779999999987
  0
CIRCLE
  5
60
100
AcDbEntity
100
AcDbCircle
  8
Cut
 62
256
370
-1
  6
ByLayer
 10
261.9999990361307027
 20
99.9997650829768645
 30
0.0
 40
1.499763079608569
  0
ARC
  5
61
100
AcDbEntity
  8
Cut
 62
256
370
-1
  6
ByLayer
100
AcDbCircle
 10
20.0
 20
280.0
 30
0.0
 40
10.0
100
AcDbArc
 50
90.0
 51
180.0
  0
LINE
  5
62
100
AcDbEntity
100
AcDbLine
  8
Cut
 62
256
370
-1
  6
ByLayer
 10
20.0
 20
290.0
 30
0.0
 11
280.0
 21
290.0
 31
0.0
  0
ARC
  5
63
100
AcDbEntity
  8
Cut
 62
256
370
-1
  6
ByLayer
100
AcDbCircle
 10
280.0
 20
280.0
 30
0.0
 40
10.0
100
AcDbArc
 50
0.0
 51
90.0
  0
LINE
  5
64
100
AcDbEntity
100
AcDbLine
  8
Cut
 62
256
370
-1
  6
ByLayer
 10
290.0
 20
280.0
 30
0.0
 11
290.0
 21
20.0
 31
0.0
  0
ARC
  5
65
100
AcDbEntity
  8
Cut
 62
256
370
-1
  6
ByLayer
100
AcDbCircle
 10
280.0
 20
20.0
 30
0.0
 40
10.0
100
AcDbArc
 50
270.0
 51
0.0
  0
LINE
  5
66
100
AcDbEntity
100
AcDbLine
  8
Cut
 62
256
370
-1
  6
ByLayer
 10
280.0
 20
10.0
 30
0.0
 11
20.0
 21
10.0
 31
0.0
  0
LINE
  5
67
100
AcDbEntity
100
AcDbLine
  8
Cut
 62
256
370
-1
  6
ByLayer
 10
10.0
 20
20.0
 30
0.0
 11
10.0
 21
280.0
 31
0.0
  0
ARC
  5
68
100
AcDbEntity
  8
Cut
 62
256
370
-1
  6
ByLayer
100
AcDbCircle
 10
20.0
 20
20.0
 30
0.0
 40
10.0
100
AcDbArc
 50
180.0
 51
270.0
  0
LINE
  5
69
100
AcDbEntity
100
AcDbLine
  8
Etch
 62
256
370
-1
  6
ByLayer
 10
10.0
 20
212.5
 30
0.0
 11
10.2189999999999941
 21
214.5790000000000077
 31
0.0
  0
LINE
  5
6A
100
AcDbEntity
100
AcDbLine
  8
Etch
 62
256
370
-1
  6
ByLayer
 10
10.2189999999999941
 20
214.5790000000000077
 30
0.0
 11
10.8650000000000091
 21
216.5670000000000073
 31
0.0
  0
LINE
  5
6B
100
AcDbEntity
100
AcDbLine
  8
Etch
 62
256
370
-1
  6
ByLayer
 10
10.8650000000000091
 20
216.5670000000000073
 30
0.0
 11
11.910000000000025
 21
218.3780000000000143
 31
0.0
  0
LINE
  5
6C
100
AcDbEntity
100
AcDbLine
  8
Etch
 62
256
370
-1
  6
ByLayer
 10
11.910000000000025
 20
218.3780000000000143
 30
0.0
 11
13.3089999999999691
 21
219.9310000000000116
 31
0.0
  0
LINE
  5
6D
100
AcDbEntity
100
AcDbLine
  8
Etch
 62
256
370
-1
  6
ByLayer
 10
13.3089999999999691
 20
219.9310000000000116
 30
0.0
 11
15.0
 21
221.1599999999999966
 31
0.0
  0
LINE
  5
6E
100
AcDbEntity
100
AcDbLine
  8
Etch
 62
256
370
-1
  6
ByLayer
 10
15.0
 20
221.1599999999999966
 30
0.0
 11
16.910000000000025
 21
222.0109999999999957
 31
0.0
  0
LINE
  5
6F
100
AcDbEntity
100
AcDbLine
  8
Etch
 62
256
370
-1
  6
ByLayer
 10
16.910000000000025
 20
222.0109999999999957
 30
0.0
 11
18.0
 21
222.2419999999999902
 31
0.0
  0
LINE
  5
70
100
AcDbEntity
100
AcDbLine
  8
Etch
 62
256
370
-1
  6
ByLayer
 10
18.0
 20
222.2419999999999902
 30
0.0
 11
18.0
 21
222.5
 31
0.0
  0
LINE
  5
71
100
AcDbEntity
100
AcDbLine
  8
Etch
 62
256
370
-1
  6
ByLayer
 10
18.0
 20
222.5
 30
0.0
 11
64.0
 21
222.5
 31
0.0
  0
LINE
  5
72
100
AcDbEntity
100
AcDbLine
  8
Etch
 62
256
370
-1
  6
ByLayer
 10
64.0
 20
222.5
 30
0.0
 11
64.0
 21
222.2419999999999902
 31
0.0
  0
LINE
  5
73
100
AcDbEntity
100
AcDbLine
  8
Etch
 62
256
370
-1
  6
ByLayer
 10
64.0
 20
222.2419999999999902
 30
0.0
 11
65.0900000000000318
 21
222.0109999999999957
 31
0.0
  0
LINE
  5
74
100
AcDbEntity
100
AcDbLine
  8
Etch
 62
256
370
-1
  6
ByLayer
 10
65.0900000000000318
 20
222.0109999999999957
 30
0.0
 11
67.0
 21
221.1599999999999966
 31
0.0
  0
LINE
  5
75
100
AcDbEntity
100
AcDbLine
  8
Etch
 62
256
370
-1
  6
ByLayer
 10
67.0
 20
221.1599999999999966
 30
0.0
 11
68.6910000000000309
 21
219.9310000000000116
 31
0.0
  0
LINE
  5
76
100
AcDbEntity
100
AcDbLine
  8
Etch
 62
256
370
-1
  6
ByLayer
 10
68.6910000000000309
 20
219.9310000000000116
 30
0.0
 11
70.0900000000000318
 21
218.3779999999999859
 31
0.0
  0
LINE
  5
77
100
AcDbEntity
100
AcDbLine
  8
Etch
 62
256
370
-1
  6
ByLayer
 10
70.0900000000000318
 20
218.3779999999999859
 30
0.0
 11
71.1349999999999909
 21
216.5670000000000073
 31
0.0
  0
LINE
  5
78
100
AcDbEntity
100
AcDbLine
  8
Etch
 62
256
370
-1
  6
ByLayer
 10
71.1349999999999909
 20
216.5670000000000073
 30
0.0
 11
71.7810000000000059
 21
214.5790000000000077
 31
0.0
  0
LINE
  5
79
100
AcDbEntity
100
AcDbLine
  8
Etch
 62
256
370
-1
  6
ByLayer
 10
71.7810000000000059
 20
214.5790000000000077
 30
0.0
 11
72.0
 21
212.5
 31
0.0
  0
LINE
  5
7A
100
AcDbEntity
100
AcDbLine
  8
Etch
 62
256
370
-1
  6
ByLayer
 10
72.0
 20
212.5
 30
0.0
 11
71.7810000000000059
 21
210.4209999999999638
 31
0.0
  0
LINE
  5
7B
100
AcDbEntity
100
AcDbLine
  8
Etch
 62
256
370
-1
  6
ByLayer
 10
71.7810000000000059
 20
210.4209999999999638
 30
0.0
 11
71.1349999999999909
 21
208.4329999999999927
 31
0.0
  0
LINE
  5
7C
100
AcDbEntity
100
AcDbLine
  8
Etch
 62
256
370
-1
  6
ByLayer
 10
71.1349999999999909
 20
208.4329999999999927
 30
0.0
 11
70.089999999999975
 21
206.6219999999999857
 31
0.0
  0
LINE
  5
7D
100
AcDbEntity
100
AcDbLine
  8
Etch
 62
256
370
-1
  6
ByLayer
 10
70.089999999999975
 20
206.6219999999999857
 30
0.0
 11
68.6909999999999741
 21
205.0689999999999884
 31
0.0
  0
LINE
  5
7E
100
AcDbEntity
100
AcDbLine
  8
Etch
 62
256
370
-1
  6
ByLayer
 10
68.6909999999999741
 20
205.0689999999999884
 30
0.0
 11
67.0
 21
203.839999999999975
 31
0.0
  0
LINE
  5
7F
100
AcDbEntity
100
AcDbLine
  8
Etch
 62
256
370
-1
  6
ByLayer
 10
67.0
 20
203.839999999999975
 30
0.0
 11
65.089999999999975
 21
202.9889999999999759
 31
0.0
  0
LINE
  5
80
100
AcDbEntity
100
AcDbLine
  8
Etch
 62
256
370
-1
  6
ByLayer
 10
65.089999999999975
 20
202.9889999999999759
 30
0.0
 11
64.0
 21
202.7579999999999814
 31
0.0
  0
LINE
  5
81
100
AcDbEntity
100
AcDbLine
  8
Etch
 62
256
370
-1
  6
ByLayer
 10
64.0
 20
202.7579999999999814
 30
0.0
 11
64.0
 21
202.5
 31
0.0
  0
LINE
  5
82
100
AcDbEntity
100
AcDbLine
  8
Etch
 62
256
370
-1
  6
ByLayer
 10
64.0
 20
202.5
 30
0.0
 11
18.0
 21
202.5
 31
0.0
  0
LINE
  5
83
100
AcDbEntity
100
AcDbLine
  8
Etch
 62
256
370
-1
  6
ByLayer
 10
18.0
 20
202.5
 30
0.0
 11
18.0
 21
202.7580000000000098
 31
0.0
  0
LINE
  5
84
100
AcDbEntity
100
AcDbLine
  8
Etch
 62
256
370
-1
  6
ByLayer
 10
18.0
 20
202.7580000000000098
 30
0.0
 11
16.910000000000025
 21
202.9890000000000043
 31
0.0
  0
LINE
  5
85
100
AcDbEntity
100
AcDbLine
  8
Etch
 62
256
370
-1
  6
ByLayer
 10
16.910000000000025
 20
202.9890000000000043
 30
0.0
 11
15.0
 21
203.8400000000000034
 31
0.0
  0
LINE
  5
86
100
AcDbEntity
100
AcDbLine
  8
Etch
 62
256
370
-1
  6
ByLayer
 10
15.0
 20
203.8400000000000034
 30
0.0
 11
13.3089999999999691
 21
205.0690000000000168
 31
0.0
  0
LINE
  5
87
100
AcDbEntity
100
AcDbLine
  8
Etch
 62
256
370
-1
  6
ByLayer
 10
13.3089999999999691
 20
205.0690000000000168
 30
0.0
 11
11.9099999999999682
 21
206.6220000000000141
 31
0.0
  0
LINE
  5
88
100
AcDbEntity
100
AcDbLine
  8
Etch
 62
256
370
-1
  6
ByLayer
 10
11.9099999999999682
 20
206.6220000000000141
 30
0.0
 11
10.8650000000000091
 21
208.4329999999999927
 31
0.0
  0
LINE
  5
89
100
AcDbEntity
100
AcDbLine
  8
Etch
 62
256
370
-1
  6
ByLayer
 10
10.8650000000000091
 20
208.4329999999999927
 30
0.0
 11
10.2189999999999941
 21
210.4209999999999923
 31
0.0
  0
LINE
  5
8A
100
AcDbEntity
100
AcDbLine
  8
Etch
 62
256
370
-1
  6
ByLayer
 10
10.2189999999999941
 20
210.4209999999999923
 30
0.0
 11
10.0
 21
212.5
 31
0.0
  0
LINE
  5
8B
100
AcDbEntity
100
AcDbLine
  8
Etch
 62
256
370
-1
  6
ByLayer
 10
10.0000000000000018
 20
87.5
 30
0.0
 11
10.2189999999999959
 21
89.5790000000000077
 31
0.0
  0
LINE
  5
8C
100
AcDbEntity
100
AcDbLine
  8
Etch
 62
256
370
-1
  6
ByLayer
 10
10.2189999999999959
 20
89.5790000000000077
 30
0.0
 11
10.8650000000000109
 21
91.5670000000000073
 31
0.0
  0
LINE
  5
8D
100
AcDbEntity
100
AcDbLine
  8
Etch
 62
256
370
-1
  6
ByLayer
 10
10.8650000000000109
 20
91.5670000000000073
 30
0.0
 11
11.9100000000000268
 21
93.3780000000000143
 31
0.0
  0
LINE
  5
8E
100
AcDbEntity
100
AcDbLine
  8
Etch
 62
256
370
-1
  6
ByLayer
 10
11.9100000000000268
 20
93.3780000000000143
 30
0.0
 11
13.3089999999999709
 21
94.9310000000000116
 31
0.0
  0
LINE
  5
8F
100
AcDbEntity
100
AcDbLine
  8
Etch
 62
256
370
-1
  6
ByLayer
 10
13.3089999999999709
 20
94.9310000000000116
 30
0.0
 11
15.0000000000000018
 21
96.1599999999999966
 31
0.0
  0
LINE
  5
90
100
AcDbEntity
100
AcDbLine
  8
Etch
 62
256
370
-1
  6
ByLayer
 10
15.0000000000000018
 20
96.1599999999999966
 30
0.0
 11
16.910000000000025
 21
97.0109999999999957
 31
0.0
  0
LINE
  5
91
100
AcDbEntity
100
AcDbLine
  8
Etch
 62
256
370
-1
  6
ByLayer
 10
16.910000000000025
 20
97.0109999999999957
 30
0.0
 11
18.0
 21
97.2419999999999902
 31
0.0
  0
LINE
  5
92
100
AcDbEntity
100
AcDbLine
  8
Etch
 62
256
370
-1
  6
ByLayer
 10
18.0
 20
97.2419999999999902
 30
0.0
 11
18.0
 21
97.5
 31
0.0
  0
LINE
  5
93
100
AcDbEntity
100
AcDbLine
  8
Etch
 62
256
370
-1
  6
ByLayer
 10
18.0
 20
97.5
 30
0.0
 11
64.0
 21
97.5
 31
0.0
  0
LINE
  5
94
100
AcDbEntity
100
AcDbLine
  8
Etch
 62
256
370
-1
  6
ByLayer
 10
64.0
 20
97.5
 30
0.0
 11
64.0
 21
97.2419999999999902
 31
0.0
  0
LINE
  5
95
100
AcDbEntity
100
AcDbLine
  8
Etch
 62
256
370
-1
  6
ByLayer
 10
64.0
 20
97.2419999999999902
 30
0.0
 11
65.0900000000000318
 21
97.0109999999999957
 31
0.0
  0
LINE
  5
96
100
AcDbEntity
100
AcDbLine
  8
Etch
 62
256
370
-1
  6
ByLayer
 10
65.0900000000000318
 20
97.0109999999999957
 30
0.0
 11
67.0
 21
96.1599999999999966
 31
0.0
  0
LINE
  5
97
100
AcDbEntity
100
AcDbLine
  8
Etch
 62
256
370
-1
  6
ByLayer
 10
67.0
 20
96.1599999999999966
 30
0.0
 11
68.6910000000000309
 21
94.9310000000000116
 31
0.0
  0
LINE
  5
98
100
AcDbEntity
100
AcDbLine
  8
Etch
 62
256
370
-1
  6
ByLayer
 10
68.6910000000000309
 20
94.9310000000000116
 30
0.0
 11
70.0900000000000318
 21
93.3779999999999859
 31
0.0
  0
LINE
  5
99
100
AcDbEntity
100
AcDbLine
  8
Etch
 62
256
370
-1
  6
ByLayer
 10
70.0900000000000318
 20
93.3779999999999859
 30
0.0
 11
71.1349999999999909
 21
91.5670000000000073
 31
0.0
  0
LINE
  5
9A
100
AcDbEntity
100
AcDbLine
  8
Etch
 62
256
370
-1
  6
ByLayer
 10
71.1349999999999909
 20
91.5670000000000073
 30
0.0
 11
71.7810000000000059
 21
89.5790000000000077
 31
0.0
  0
LINE
  5
9B
100
AcDbEntity
100
AcDbLine
  8
Etch
 62
256
370
-1
  6
ByLayer
 10
71.7810000000000059
 20
89.5790000000000077
 30
0.0
 11
72.0
 21
87.5
 31
0.0
  0
LINE
  5
9C
100
AcDbEntity
100
AcDbLine
  8
Etch
 62
256
370
-1
  6
ByLayer
 10
72.0
 20
87.5
 30
0.0
 11
71.7810000000000059
 21
85.4209999999999638
 31
0.0
  0
LINE
  5
9D
100
AcDbEntity
100
AcDbLine
  8
Etch
 62
256
370
-1
  6
ByLayer
 10
71.7810000000000059
 20
85.4209999999999638
 30
0.0
 11
71.1349999999999909
 21
83.4329999999999927
 31
0.0
  0
LINE
  5
9E
100
AcDbEntity
100
AcDbLine
  8
Etch
 62
256
370
-1
  6
ByLayer
 10
71.1349999999999909
 20
83.4329999999999927
 30
0.0
 11
70.089999999999975
 21
81.6219999999999857
 31
0.0
  0
LINE
  5
9F
100
AcDbEntity
100
AcDbLine
  8
Etch
 62
256
370
-1
  6
ByLayer
 10
70.089999999999975
 20
81.6219999999999857
 30
0.0
 11
68.6909999999999741
 21
80.0689999999999884
 31
0.0
  0
LINE
  5
A0
100
AcDbEntity
100
AcDbLine
  8
Etch
 62
256
370
-1
  6
ByLayer
 10
68.6909999999999741
 20
80.0689999999999884
 30
0.0
 11
67.0
 21
78.839999999999975
 31
0.0
  0
LINE
  5
A1
100
AcDbEntity
100
AcDbLine
  8
Etch
 62
256
370
-1
  6
ByLayer
 10
67.0
 20
78.839999999999975
 30
0.0
 11
65.089999999999975
 21
77.9889999999999759
 31
0.0
  0
LINE
  5
A2
100
AcDbEntity
100
AcDbLine
  8
Etch
 62
256
370
-1
  6
ByLayer
 10
65.089999999999975
 20
77.9889999999999759
 30
0.0
 11
64.0
 21
77.7579999999999814
 31
0.0
  0
LINE
  5
A3
100
AcDbEntity
100
AcDbLine
  8
Etch
 62
256
370
-1
  6
ByLayer
 10
64.0
 20
77.7579999999999814
 30
0.0
 11
64.0
 21
77.5
 31
0.0
  0
LINE
  5
A4
100
AcDbEntity
100
AcDbLine
  8
Etch
 62
256
370
-1
  6
ByLayer
 10
64.0
 20
77.5
 30
0.0
 11
18.0
 21
77.5
 31
0.0
  0
LINE
  5
A5
100
AcDbEntity
100
AcDbLine
  8
Etch
 62
256
370
-1
  6
ByLayer
 10
18.0
 20
77.5
 30
0.0
 11
18.0
 21
77.7580000000000098
 31
0.0
  0
LINE
  5
A6
100
AcDbEntity
100
AcDbLine
  8
Etch
 62
256
370
-1
  6
ByLayer
 10
18.0
 20
77.7580000000000098
 30
0.0
 11
16.910000000000025
 21
77.9890000000000043
 31
0.0
  0
LINE
  5
A7
100
AcDbEntity
100
AcDbLine
  8
Etch
 62
256
370
-1
  6
ByLayer
 10
16.910000000000025
 20
77.9890000000000043
 30
0.0
 11
15.0000000000000018
 21
78.8400000000000034
 31
0.0
  0
LINE
  5
A8
100
AcDbEntity
100
AcDbLine
  8
Etch
 62
256
370
-1
  6
ByLayer
 10
15.0000000000000018
 20
78.8400000000000034
 30
0.0
 11
13.3089999999999709
 21
80.0690000000000168
 31
0.0
  0
LINE
  5
A9
100
AcDbEntity
100
AcDbLine
  8
Etch
 62
256
370
-1
  6
ByLayer
 10
13.3089999999999709
 20
80.0690000000000168
 30
0.0
 11
11.9099999999999699
 21
81.6220000000000141
 31
0.0
  0
LINE
  5
AA
100
AcDbEntity
100
AcDbLine
  8
Etch
 62
256
370
-1
  6
ByLayer
 10
11.9099999999999699
 20
81.6220000000000141
 30
0.0
 11
10.8650000000000109
 21
83.4329999999999927
 31
0.0
  0
LINE
  5
AB
100
AcDbEntity
100
AcDbLine
  8
Etch
 62
256
370
-1
  6
ByLayer
 10
10.8650000000000109
 20
83.4329999999999927
 30
0.0
 11
10.2189999999999959
 21
85.4209999999999923
 31
0.0
  0
LINE
  5
AC
100
AcDbEntity
100
AcDbLine
  8
Etch
 62
256
370
-1
  6
ByLayer
 10
10.2189999999999959
 20
85.4209999999999923
 30
0.0
 11
10.0000000000000018
 21
87.5
 31
0.0
  0
LINE
  5
AD
100
AcDbEntity
100
AcDbLine
  8
Etch
 62
256
370
-1
  6
ByLayer
 10
100.0
 20
129.0
 30
0.0
 11
98.4409999999999741
 21
129.1639999999999873
 31
0.0
  0
LINE
  5
AE
100
AcDbEntity
100
AcDbLine
  8
Etch
 62
256
370
-1
  6
ByLayer
 10
98.4409999999999741
 20
129.1639999999999873
 30
0.0
 11
96.9490000000000123
 21
129.6479999999999961
 31
0.0
  0
LINE
  5
AF
100
AcDbEntity
100
AcDbLine
  8
Etch
 62
256
370
-1
  6
ByLayer
 10
96.9490000000000123
 20
129.6479999999999961
 30
0.0
 11
95.5919999999999987
 21
130.4320000000000164
 31
0.0
  0
LINE
  5
B0
100
AcDbEntity
100
AcDbLine
  8
Etch
 62
256
370
-1
  6
ByLayer
 10
95.5919999999999987
 20
130.4320000000000164
 30
0.0
 11
94.4260000000000019
 21
131.4819999999999993
 31
0.0
  0
LINE
  5
B1
100
AcDbEntity
100
AcDbLine
  8
Etch
 62
256
370
-1
  6
ByLayer
 10
94.4260000000000019
 20
131.4819999999999993
 30
0.0
 11
93.5049999999999955
 21
132.75
 31
0.0
  0
LINE
  5
B2
100
AcDbEntity
100
AcDbLine
  8
Etch
 62
256
370
-1
  6
ByLayer
 10
93.5049999999999955
 20
132.75
 30
0.0
 11
92.8670000000000044
 21
134.1819999999999879
 31
0.0
  0
LINE
  5
B3
100
AcDbEntity
100
AcDbLine
  8
Etch
 62
256
370
-1
  6
ByLayer
 10
92.8670000000000044
 20
134.1819999999999879
 30
0.0
 11
92.6929999999999978
 21
135.0
 31
0.0
  0
LINE
  5
B4
100
AcDbEntity
100
AcDbLine
  8
Etch
 62
256
370
-1
  6
ByLayer
 10
92.6929999999999978
 20
135.0
 30
0.0
 11
92.5000000000000142
 21
135.0
 31
0.0
  0
LINE
  5
B5
100
AcDbEntity
100
AcDbLine
  8
Etch
 62
256
370
-1
  6
ByLayer
 10
92.5000000000000142
 20
135.0
 30
0.0
 11
92.5
 21
165.0
 31
0.0
  0
LINE
  5
B6
100
AcDbEntity
100
AcDbLine
  8
Etch
 62
256
370
-1
  6
ByLayer
 10
92.5
 20
165.0
 30
0.0
 11
92.6929999999999978
 21
165.0
 31
0.0
  0
LINE
  5
B7
100
AcDbEntity
100
AcDbLine
  8
Etch
 62
256
370
-1
  6
ByLayer
 10
92.6929999999999978
 20
165.0
 30
0.0
 11
92.8670000000000044
 21
165.8180000000000121
 31
0.0
  0
LINE
  5
B8
100
AcDbEntity
100
AcDbLine
  8
Etch
 62
256
370
-1
  6
ByLayer
 10
92.8670000000000044
 20
165.8180000000000121
 30
0.0
 11
93.5050000000000097
 21
167.25
 31
0.0
  0
LINE
  5
B9
100
AcDbEntity
100
AcDbLine
  8
Etch
 62
256
370
-1
  6
ByLayer
 10
93.5050000000000097
 20
167.25
 30
0.0
 11
94.4260000000000019
 21
168.5180000000000007
 31
0.0
  0
LINE
  5
BA
100
AcDbEntity
100
AcDbLine
  8
Etch
 62
256
370
-1
  6
ByLayer
 10
94.4260000000000019
 20
168.5180000000000007
 30
0.0
 11
95.5919999999999987
 21
169.5680000000000121
 31
0.0
  0
LINE
  5
BB
100
AcDbEntity
100
AcDbLine
  8
Etch
 62
256
370
-1
  6
ByLayer
 10
95.5919999999999987
 20
169.5680000000000121
 30
0.0
 11
96.9489999999999981
 21
170.3520000000000039
 31
0.0
  0
LINE
  5
BC
100
AcDbEntity
100
AcDbLine
  8
Etch
 62
256
370
-1
  6
ByLayer
 10
96.9489999999999981
 20
170.3520000000000039
 30
0.0
 11
98.4409999999999883
 21
170.8360000000000127
 31
0.0
  0
LINE
  5
BD
100
AcDbEntity
100
AcDbLine
  8
Etch
 62
256
370
-1
  6
ByLayer
 10
98.4409999999999883
 20
170.8360000000000127
 30
0.0
 11
100.0
 21
171.0
 31
0.0
  0
LINE
  5
BE
100
AcDbEntity
100
AcDbLine
  8
Etch
 62
256
370
-1
  6
ByLayer
 10
100.0
 20
171.0
 30
0.0
 11
101.5590000000000259
 21
170.8360000000000127
 31
0.0
  0
LINE
  5
BF
100
AcDbEntity
100
AcDbLine
  8
Etch
 62
256
370
-1
  6
ByLayer
 10
101.5590000000000259
 20
170.8360000000000127
 30
0.0
 11
103.0510000000000019
 21
170.3520000000000039
 31
0.0
  0
LINE
  5
C0
100
AcDbEntity
100
AcDbLine
  8
Etch
 62
256
370
-1
  6
ByLayer
 10
103.0510000000000019
 20
170.3520000000000039
 30
0.0
 11
104.4080000000000155
 21
169.5679999999999836
 31
0.0
  0
LINE
  5
C1
100
AcDbEntity
100
AcDbLine
  8
Etch
 62
256
370
-1
  6
ByLayer
 10
104.4080000000000155
 20
169.5679999999999836
 30
0.0
 11
105.5739999999999981
 21
168.5180000000000007
 31
0.0
  0
LINE
  5
C2
100
AcDbEntity
100
AcDbLine
  8
Etch
 62
256
370
-1
  6
ByLayer
 10
105.5739999999999981
 20
168.5180000000000007
 30
0.0
 11
106.4950000000000045
 21
167.25
 31
0.0
  0
LINE
  5
C3
100
AcDbEntity
100
AcDbLine
  8
Etch
 62
256
370
-1
  6
ByLayer
 10
106.4950000000000045
 20
167.25
 30
0.0
 11
107.1330000000000098
 21
165.8179999999999836
 31
0.0
  0
LINE
  5
C4
100
AcDbEntity
100
AcDbLine
  8
Etch
 62
256
370
-1
  6
ByLayer
 10
107.1330000000000098
 20
165.8179999999999836
 30
0.0
 11
107.3070000000000022
 21
165.0
 31
0.0
  0
LINE
  5
C5
100
AcDbEntity
100
AcDbLine
  8
Etch
 62
256
370
-1
  6
ByLayer
 10
107.3070000000000022
 20
165.0
 30
0.0
 11
107.5
 21
165.0
 31
0.0
  0
LINE
  5
C6
100
AcDbEntity
100
AcDbLine
  8
Etch
 62
256
370
-1
  6
ByLayer
 10
107.5
 20
165.0
 30
0.0
 11
107.4999999999999858
 21
135.0
 31
0.0
  0
LINE
  5
C7
100
AcDbEntity
100
AcDbLine
  8
Etch
 62
256
370
-1
  6
ByLayer
 10
107.4999999999999858
 20
135.0
 30
0.0
 11
107.3070000000000022
 21
135.0
 31
0.0
  0
LINE
  5
C8
100
AcDbEntity
100
AcDbLine
  8
Etch
 62
256
370
-1
  6
ByLayer
 10
107.3070000000000022
 20
135.0
 30
0.0
 11
107.1329999999999956
 21
134.1819999999999879
 31
0.0
  0
LINE
  5
C9
100
AcDbEntity
100
AcDbLine
  8
Etch
 62
256
370
-1
  6
ByLayer
 10
107.1329999999999956
 20
134.1819999999999879
 30
0.0
 11
106.4949999999999903
 21
132.75
 31
0.0
  0
LINE
  5
CA
100
AcDbEntity
100
AcDbLine
  8
Etch
 62
256
370
-1
  6
ByLayer
 10
106.4949999999999903
 20
132.75
 30
0.0
 11
105.5739999999999981
 21
131.4819999999999993
 31
0.0
  0
LINE
  5
CB
100
AcDbEntity
100
AcDbLine
  8
Etch
 62
256
370
-1
  6
ByLayer
 10
105.5739999999999981
 20
131.4819999999999993
 30
0.0
 11
104.4080000000000013
 21
130.4320000000000164
 31
0.0
  0
LINE
  5
CC
100
AcDbEntity
100
AcDbLine
  8
Etch
 62
256
370
-1
  6
ByLayer
 10
104.4080000000000013
 20
130.4320000000000164
 30
0.0
 11
103.0509999999999735
 21
129.6479999999999961
 31
0.0
  0
LINE
  5
CD
100
AcDbEntity
100
AcDbLine
  8
Etch
 62
256
370
-1
  6
ByLayer
 10
103.0509999999999735
 20
129.6479999999999961
 30
0.0
 11
101.5590000000000117
 21
129.1639999999999873
 31
0.0
  0
LINE
  5
CE
100
AcDbEntity
100
AcDbLine
  8
Etch
 62
256
370
-1
  6
ByLayer
 10
101.5590000000000117
 20
129.1639999999999873
 30
0.0
 11
100.0
 21
129.0
 31
0.0
  0
LINE
  5
CF
100
AcDbEntity
100
AcDbLine
  8
Etch
 62
256
370
-1
  6
ByLayer
 10
113.0
 20
213.0
 30
0.0
 11
113.0
 21
267.0
 31
0.0
  0
LINE
  5
D0
100
AcDbEntity
100
AcDbLine
  8
Etch
 62
256
370
-1
  6
ByLayer
 10
113.0
 20
267.0
 30
0.0
 11
187.0
 21
267.0
 31
0.0
  0
LINE
  5
D1
100
AcDbEntity
100
AcDbLine
  8
Etch
 62
256
370
-1
  6
ByLayer
 10
187.0
 20
267.0
 30
0.0
 11
187.0
 21
212.9999999999999716
 31
0.0
  0
LINE
  5
D2
100
AcDbEntity
100
AcDbLine
  8
Etch
 62
256
370
-1
  6
ByLayer
 10
187.0
 20
212.9999999999999716
 30
0.0
 11
113.0
 21
213.0
 31
0.0
  0
LINE
  5
D3
100
AcDbEntity
100
AcDbLine
  8
Etch
 62
256
370
-1
  6
ByLayer
 10
203.0
 20
213.0
 30
0.0
 11
203.0
 21
267.0
 31
0.0
  0
LINE
  5
D4
100
AcDbEntity
100
AcDbLine
  8
Etch
 62
256
370
-1
  6
ByLayer
 10
203.0
 20
267.0
 30
0.0
 11
277.0
 21
267.0
 31
0.0
  0
LINE
  5
D5
100
AcDbEntity
100
AcDbLine
  8
Etch
 62
256
370
-1
  6
ByLayer
 10
277.0
 20
267.0
 30
0.0
 11
277.0
 21
212.9999999999999716
 31
0.0
  0
LINE
  5
D6
100
AcDbEntity
100
AcDbLine
  8
Etch
 62
256
370
-1
  6
ByLayer
 10
277.0
 20
212.9999999999999716
 30
0.0
 11
203.0
 21
213.0
 31
0.0
  0
LINE
  5
D7
100
AcDbEntity
100
AcDbLine
  8
Etch
 62
256
370
-1
  6
ByLayer
 10
127.5
 20
115.0
 30
0.0
 11
127.6090000000000089
 21
116.039999999999992
 31
0.0
  0
LINE
  5
D8
100
AcDbEntity
100
AcDbLine
  8
Etch
 62
256
370
-1
  6
ByLayer
 10
127.6090000000000089
 20
116.039999999999992
 30
0.0
 11
127.9319999999999879
 21
117.034000000000006
 31
0.0
  0
LINE
  5
D9
100
AcDbEntity
100
AcDbLine
  8
Etch
 62
256
370
-1
  6
ByLayer
 10
127.9319999999999879
 20
117.034000000000006
 30
0.0
 11
128.4549999999999841
 21
117.9390000000000072
 31
0.0
  0
LINE
  5
DA
100
AcDbEntity
100
AcDbLine
  8
Etch
 62
256
370
-1
  6
ByLayer
 10
128.4549999999999841
 20
117.9390000000000072
 30
0.0
 11
129.1539999999999964
 21
118.7160000000000082
 31
0.0
  0
LINE
  5
DB
100
AcDbEntity
100
AcDbLine
  8
Etch
 62
256
370
-1
  6
ByLayer
 10
129.1539999999999964
 20
118.7160000000000082
 30
0.0
 11
129.9999999999999716
 21
119.3300000000000125
 31
0.0
  0
LINE
  5
DC
100
AcDbEntity
100
AcDbLine
  8
Etch
 62
256
370
-1
  6
ByLayer
 10
129.9999999999999716
 20
119.3300000000000125
 30
0.0
 11
130.9549999999999841
 21
119.7550000000000097
 31
0.0
  0
LINE
  5
DD
100
AcDbEntity
100
AcDbLine
  8
Etch
 62
256
370
-1
  6
ByLayer
 10
130.9549999999999841
 20
119.7550000000000097
 30
0.0
 11
131.9769999999999754
 21
119.9730000000000132
 31
0.0
  0
LINE
  5
DE
100
AcDbEntity
100
AcDbLine
  8
Etch
 62
256
370
-1
  6
ByLayer
 10
131.9769999999999754
 20
119.9730000000000132
 30
0.0
 11
132.5
 21
119.972999999999999
 31
0.0
  0
LINE
  5
DF
100
AcDbEntity
100
AcDbLine
  8
Etch
 62
256
370
-1
  6
ByLayer
 10
132.5
 20
119.972999999999999
 30
0.0
 11
132.5
 21
120.0
 31
0.0
  0
LINE
  5
E0
100
AcDbEntity
100
AcDbLine
  8
Etch
 62
256
370
-1
  6
ByLayer
 10
132.5
 20
120.0
 30
0.0
 11
137.5
 21
120.0
 31
0.0
  0
LINE
  5
E1
100
AcDbEntity
100
AcDbLine
  8
Etch
 62
256
370
-1
  6
ByLayer
 10
137.5
 20
120.0
 30
0.0
 11
137.5
 21
180.0
 31
0.0
  0
LINE
  5
E2
100
AcDbEntity
100
AcDbLine
  8
Etch
 62
256
370
-1
  6
ByLayer
 10
137.5
 20
180.0
 30
0.0
 11
132.5
 21
180.0
 31
0.0
  0
LINE
  5
E3
100
AcDbEntity
100
AcDbLine
  8
Etch
 62
256
370
-1
  6
ByLayer
 10
132.5
 20
180.0
 30
0.0
 11
132.5
 21
180.0269999999999868
 31
0.0
  0
LINE
  5
E4
100
AcDbEntity
100
AcDbLine
  8
Etch
 62
256
370
-1
  6
ByLayer
 10
132.5
 20
180.0269999999999868
 30
0.0
 11
131.9770000000000039
 21
180.0270000000000152
 31
0.0
  0
LINE
  5
E5
100
AcDbEntity
100
AcDbLine
  8
Etch
 62
256
370
-1
  6
ByLayer
 10
131.9770000000000039
 20
180.0270000000000152
 30
0.0
 11
130.9549999999999841
 21
180.2450000000000045
 31
0.0
  0
LINE
  5
E6
100
AcDbEntity
100
AcDbLine
  8
Etch
 62
256
370
-1
  6
ByLayer
 10
130.9549999999999841
 20
180.2450000000000045
 30
0.0
 11
130.0
 21
180.6699999999999875
 31
0.0
  0
LINE
  5
E7
100
AcDbEntity
100
AcDbLine
  8
Etch
 62
256
370
-1
  6
ByLayer
 10
130.0
 20
180.6699999999999875
 30
0.0
 11
129.1539999999999964
 21
181.2839999999999918
 31
0.0
  0
LINE
  5
E8
100
AcDbEntity
100
AcDbLine
  8
Etch
 62
256
370
-1
  6
ByLayer
 10
129.1539999999999964
 20
181.2839999999999918
 30
0.0
 11
128.4549999999999841
 21
182.061000000000007
 31
0.0
  0
LINE
  5
E9
100
AcDbEntity
100
AcDbLine
  8
Etch
 62
256
370
-1
  6
ByLayer
 10
128.4549999999999841
 20
182.061000000000007
 30
0.0
 11
127.9320000000000022
 21
182.9660000000000082
 31
0.0
  0
LINE
  5
EA
100
AcDbEntity
100
AcDbLine
  8
Etch
 62
256
370
-1
  6
ByLayer
 10
127.9320000000000022
 20
182.9660000000000082
 30
0.0
 11
127.6090000000000089
 21
183.960000000000008
 31
0.0
  0
LINE
  5
EB
100
AcDbEntity
100
AcDbLine
  8
Etch
 62
256
370
-1
  6
ByLayer
 10
127.6090000000000089
 20
183.960000000000008
 30
0.0
 11
127.5
 21
185.0
 31
0.0
  0
LINE
  5
EC
100
AcDbEntity
100
AcDbLine
  8
Etch
 62
256
370
-1
  6
ByLayer
 10
127.5
 20
185.0
 30
0.0
 11
127.6089999999999947
 21
186.039999999999992
 31
0.0
  0
LINE
  5
ED
100
AcDbEntity
100
AcDbLine
  8
Etch
 62
256
370
-1
  6
ByLayer
 10
127.6089999999999947
 20
186.039999999999992
 30
0.0
 11
127.9319999999999879
 21
187.0339999999999918
 31
0.0
  0
LINE
  5
EE
100
AcDbEntity
100
AcDbLine
  8
Etch
 62
256
370
-1
  6
ByLayer
 10
127.9319999999999879
 20
187.0339999999999918
 30
0.0
 11
128.4550000000000125
 21
187.938999999999993
 31
0.0
  0
LINE
  5
EF
100
AcDbEntity
100
AcDbLine
  8
Etch
 62
256
370
-1
  6
ByLayer
 10
128.4550000000000125
 20
187.938999999999993
 30
0.0
 11
129.1539999999999964
 21
188.7160000000000082
 31
0.0
  0
LINE
  5
F0
100
AcDbEntity
100
AcDbLine
  8
Etch
 62
256
370
-1
  6
ByLayer
 10
129.1539999999999964
 20
188.7160000000000082
 30
0.0
 11
130.0
 21
189.3299999999999841
 31
0.0
  0
LINE
  5
F1
100
AcDbEntity
100
AcDbLine
  8
Etch
 62
256
370
-1
  6
ByLayer
 10
130.0
 20
189.3299999999999841
 30
0.0
 11
130.9549999999999841
 21
189.7549999999999955
 31
0.0
  0
LINE
  5
F2
100
AcDbEntity
100
AcDbLine
  8
Etch
 62
256
370
-1
  6
ByLayer
 10
130.9549999999999841
 20
189.7549999999999955
 30
0.0
 11
131.9770000000000039
 21
189.9730000000000132
 31
0.0
  0
LINE
  5
F3
100
AcDbEntity
100
AcDbLine
  8
Etch
 62
256
370
-1
  6
ByLayer
 10
131.9770000000000039
 20
189.9730000000000132
 30
0.0
 11
132.5
 21
189.9730000000000132
 31
0.0
  0
LINE
  5
F4
100
AcDbEntity
100
AcDbLine
  8
Etch
 62
256
370
-1
  6
ByLayer
 10
132.5
 20
189.9730000000000132
 30
0.0
 11
132.5
 21
190.0
 31
0.0
  0
LINE
  5
F5
100
AcDbEntity
100
AcDbLine
  8
Etch
 62
256
370
-1
  6
ByLayer
 10
132.5
 20
190.0
 30
0.0
 11
167.5
 21
190.0
 31
0.0
  0
LINE
  5
F6
100
AcDbEntity
100
AcDbLine
  8
Etch
 62
256
370
-1
  6
ByLayer
 10
167.5
 20
190.0
 30
0.0
 11
167.5
 21
189.9730000000000132
 31
0.0
  0
LINE
  5
F7
100
AcDbEntity
100
AcDbLine
  8
Etch
 62
256
370
-1
  6
ByLayer
 10
167.5
 20
189.9730000000000132
 30
0.0
 11
168.0229999999999961
 21
189.9730000000000132
 31
0.0
  0
LINE
  5
F8
100
AcDbEntity
100
AcDbLine
  8
Etch
 62
256
370
-1
  6
ByLayer
 10
168.0229999999999961
 20
189.9730000000000132
 30
0.0
 11
169.0449999999999875
 21
189.7549999999999955
 31
0.0
  0
LINE
  5
F9
100
AcDbEntity
100
AcDbLine
  8
Etch
 62
256
370
-1
  6
ByLayer
 10
169.0449999999999875
 20
189.7549999999999955
 30
0.0
 11
170.0
 21
189.3299999999999841
 31
0.0
  0
LINE
  5
FA
100
AcDbEntity
100
AcDbLine
  8
Etch
 62
256
370
-1
  6
ByLayer
 10
170.0
 20
189.3299999999999841
 30
0.0
 11
170.8460000000000036
 21
188.7160000000000082
 31
0.0
  0
LINE
  5
FB
100
AcDbEntity
100
AcDbLine
  8
Etch
 62
256
370
-1
  6
ByLayer
 10
170.8460000000000036
 20
188.7160000000000082
 30
0.0
 11
171.5450000000000159
 21
187.938999999999993
 31
0.0
  0
LINE
  5
FC
100
AcDbEntity
100
AcDbLine
  8
Etch
 62
256
370
-1
  6
ByLayer
 10
171.5450000000000159
 20
187.938999999999993
 30
0.0
 11
172.0680000000000121
 21
187.0339999999999918
 31
0.0
  0
LINE
  5
FD
100
AcDbEntity
100
AcDbLine
  8
Etch
 62
256
370
-1
  6
ByLayer
 10
172.0680000000000121
 20
187.0339999999999918
 30
0.0
 11
172.3909999999999911
 21
186.0400000000000205
 31
0.0
  0
LINE
  5
FE
100
AcDbEntity
100
AcDbLine
  8
Etch
 62
256
370
-1
  6
ByLayer
 10
172.3909999999999911
 20
186.0400000000000205
 30
0.0
 11
172.5
 21
185.0
 31
0.0
  0
LINE
  5
FF
100
AcDbEntity
100
AcDbLine
  8
Etch
 62
256
370
-1
  6
ByLayer
 10
172.5
 20
185.0
 30
0.0
 11
172.3909999999999911
 21
183.9599999999999795
 31
0.0
  0
LINE
  5
100
100
AcDbEntity
100
AcDbLine
  8
Etch
 62
256
370
-1
  6
ByLayer
 10
172.3909999999999911
 20
183.9599999999999795
 30
0.0
 11
172.0679999999999836
 21
182.9660000000000082
 31
0.0
  0
LINE
  5
101
100
AcDbEntity
100
AcDbLine
  8
Etch
 62
256
370
-1
  6
ByLayer
 10
172.0679999999999836
 20
182.9660000000000082
 30
0.0
 11
171.5450000000000159
 21
182.061000000000007
 31
0.0
  0
LINE
  5
102
100
AcDbEntity
100
AcDbLine
  8
Etch
 62
256
370
-1
  6
ByLayer
 10
171.5450000000000159
 20
182.061000000000007
 30
0.0
 11
170.8460000000000036
 21
181.2840000000000202
 31
0.0
  0
LINE
  5
103
100
AcDbEntity
100
AcDbLine
  8
Etch
 62
256
370
-1
  6
ByLayer
 10
170.8460000000000036
 20
181.2840000000000202
 30
0.0
 11
170.0
 21
180.6699999999999875
 31
0.0
  0
LINE
  5
104
100
AcDbEntity
100
AcDbLine
  8
Etch
 62
256
370
-1
  6
ByLayer
 10
170.0
 20
180.6699999999999875
 30
0.0
 11
169.0449999999999875
 21
180.2450000000000045
 31
0.0
  0
LINE
  5
105
100
AcDbEntity
100
AcDbLine
  8
Etch
 62
256
370
-1
  6
ByLayer
 10
169.0449999999999875
 20
180.2450000000000045
 30
0.0
 11
168.0229999999999961
 21
180.0270000000000152
 31
0.0
  0
LINE
  5
106
100
AcDbEntity
100
AcDbLine
  8
Etch
 62
256
370
-1
  6
ByLayer
 10
168.0229999999999961
 20
180.0270000000000152
 30
0.0
 11
167.5
 21
180.0269999999999868
 31
0.0
  0
LINE
  5
107
100
AcDbEntity
100
AcDbLine
  8
Etch
 62
256
370
-1
  6
ByLayer
 10
167.5
 20
180.0269999999999868
 30
0.0
 11
167.5
 21
180.0
 31
0.0
  0
LINE
  5
108
100
AcDbEntity
100
AcDbLine
  8
Etch
 62
256
370
-1
  6
ByLayer
 10
167.5
 20
180.0
 30
0.0
 11
162.5
 21
180.0
 31
0.0
  0
LINE
  5
109
100
AcDbEntity
100
AcDbLine
  8
Etch
 62
256
370
-1
  6
ByLayer
 10
162.5
 20
180.0
 30
0.0
 11
162.5
 21
120.0
 31
0.0
  0
LINE
  5
10A
100
AcDbEntity
100
AcDbLine
  8
Etch
 62
256
370
-1
  6
ByLayer
 10
162.5
 20
120.0
 30
0.0
 11
167.5
 21
119.9999999999999858
 31
0.0
  0
LINE
  5
10B
100
AcDbEntity
100
AcDbLine
  8
Etch
 62
256
370
-1
  6
ByLayer
 10
167.5
 20
119.9999999999999858
 30
0.0
 11
167.5
 21
119.972999999999999
 31
0.0
  0
LINE
  5
10C
100
AcDbEntity
100
AcDbLine
  8
Etch
 62
256
370
-1
  6
ByLayer
 10
167.5
 20
119.972999999999999
 30
0.0
 11
168.0229999999999961
 21
119.972999999999999
 31
0.0
  0
LINE
  5
10D
100
AcDbEntity
100
AcDbLine
  8
Etch
 62
256
370
-1
  6
ByLayer
 10
168.0229999999999961
 20
119.972999999999999
 30
0.0
 11
169.0449999999999875
 21
119.7549999999999955
 31
0.0
  0
LINE
  5
10E
100
AcDbEntity
100
AcDbLine
  8
Etch
 62
256
370
-1
  6
ByLayer
 10
169.0449999999999875
 20
119.7549999999999955
 30
0.0
 11
169.9999999999999716
 21
119.3299999999999841
 31
0.0
  0
LINE
  5
10F
100
AcDbEntity
100
AcDbLine
  8
Etch
 62
256
370
-1
  6
ByLayer
 10
169.9999999999999716
 20
119.3299999999999841
 30
0.0
 11
170.8460000000000036
 21
118.7160000000000082
 31
0.0
  0
LINE
  5
110
100
AcDbEntity
100
AcDbLine
  8
Etch
 62
256
370
-1
  6
ByLayer
 10
170.8460000000000036
 20
118.7160000000000082
 30
0.0
 11
171.5450000000000159
 21
117.938999999999993
 31
0.0
  0
LINE
  5
111
100
AcDbEntity
100
AcDbLine
  8
Etch
 62
256
370
-1
  6
ByLayer
 10
171.5450000000000159
 20
117.938999999999993
 30
0.0
 11
172.0679999999999836
 21
117.0339999999999918
 31
0.0
  0
LINE
  5
112
100
AcDbEntity
100
AcDbLine
  8
Etch
 62
256
370
-1
  6
ByLayer
 10
172.0679999999999836
 20
117.0339999999999918
 30
0.0
 11
172.3909999999999627
 21
116.039999999999992
 31
0.0
  0
LINE
  5
113
100
AcDbEntity
100
AcDbLine
  8
Etch
 62
256
370
-1
  6
ByLayer
 10
172.3909999999999627
 20
116.039999999999992
 30
0.0
 11
172.5
 21
115.0
 31
0.0
  0
LINE
  5
114
100
AcDbEntity
100
AcDbLine
  8
Etch
 62
256
370
-1
  6
ByLayer
 10
172.5
 20
115.0
 30
0.0
 11
172.3909999999999911
 21
113.960000000000008
 31
0.0
  0
LINE
  5
115
100
AcDbEntity
100
AcDbLine
  8
Etch
 62
256
370
-1
  6
ByLayer
 10
172.3909999999999911
 20
113.960000000000008
 30
0.0
 11
172.0679999999999836
 21
112.9660000000000082
 31
0.0
  0
LINE
  5
116
100
AcDbEntity
100
AcDbLine
  8
Etch
 62
256
370
-1
  6
ByLayer
 10
172.0679999999999836
 20
112.9660000000000082
 30
0.0
 11
171.5450000000000159
 21
112.061000000000007
 31
0.0
  0
LINE
  5
117
100
AcDbEntity
100
AcDbLine
  8
Etch
 62
256
370
-1
  6
ByLayer
 10
171.5450000000000159
 20
112.061000000000007
 30
0.0
 11
170.8460000000000036
 21
111.2839999999999918
 31
0.0
  0
LINE
  5
118
100
AcDbEntity
100
AcDbLine
  8
Etch
 62
256
370
-1
  6
ByLayer
 10
170.8460000000000036
 20
111.2839999999999918
 30
0.0
 11
170.0
 21
110.6700000000000017
 31
0.0
  0
LINE
  5
119
100
AcDbEntity
100
AcDbLine
  8
Etch
 62
256
370
-1
  6
ByLayer
 10
170.0
 20
110.6700000000000017
 30
0.0
 11
169.0449999999999875
 21
110.2449999999999761
 31
0.0
  0
LINE
  5
11A
100
AcDbEntity
100
AcDbLine
  8
Etch
 62
256
370
-1
  6
ByLayer
 10
169.0449999999999875
 20
110.2449999999999761
 30
0.0
 11
168.0229999999999677
 21
110.0269999999999868
 31
0.0
  0
LINE
  5
11B
100
AcDbEntity
100
AcDbLine
  8
Etch
 62
256
370
-1
  6
ByLayer
 10
168.0229999999999677
 20
110.0269999999999868
 30
0.0
 11
167.4999999999999716
 21
110.0269999999999868
 31
0.0
  0
LINE
  5
11C
100
AcDbEntity
100
AcDbLine
  8
Etch
 62
256
370
-1
  6
ByLayer
 10
167.4999999999999716
 20
110.0269999999999868
 30
0.0
 11
167.5
 21
110.0
 31
0.0
  0
LINE
  5
11D
100
AcDbEntity
100
AcDbLine
  8
Etch
 62
256
370
-1
  6
ByLayer
 10
167.5
 20
110.0
 30
0.0
 11
132.5
 21
110.0
 31
0.0
  0
LINE
  5
11E
100
AcDbEntity
100
AcDbLine
  8
Etch
 62
256
370
-1
  6
ByLayer
 10
132.5
 20
110.0
 30
0.0
 11
132.4999999999999716
 21
110.0270000000000152
 31
0.0
  0
LINE
  5
11F
100
AcDbEntity
100
AcDbLine
  8
Etch
 62
256
370
-1
  6
ByLayer
 10
132.4999999999999716
 20
110.0270000000000152
 30
0.0
 11
131.9770000000000039
 21
110.027000000000001
 31
0.0
  0
LINE
  5
120
100
AcDbEntity
100
AcDbLine
  8
Etch
 62
256
370
-1
  6
ByLayer
 10
131.9770000000000039
 20
110.027000000000001
 30
0.0
 11
130.9549999999999557
 21
110.2450000000000045
 31
0.0
  0
LINE
  5
121
100
AcDbEntity
100
AcDbLine
  8
Etch
 62
256
370
-1
  6
ByLayer
 10
130.9549999999999557
 20
110.2450000000000045
 30
0.0
 11
129.9999999999999716
 21
110.6700000000000159
 31
0.0
  0
LINE
  5
122
100
AcDbEntity
100
AcDbLine
  8
Etch
 62
256
370
-1
  6
ByLayer
 10
129.9999999999999716
 20
110.6700000000000159
 30
0.0
 11
129.1539999999999964
 21
111.284000000000006
 31
0.0
  0
LINE
  5
123
100
AcDbEntity
100
AcDbLine
  8
Etch
 62
256
370
-1
  6
ByLayer
 10
129.1539999999999964
 20
111.284000000000006
 30
0.0
 11
128.4549999999999841
 21
112.061000000000007
 31
0.0
  0
LINE
  5
124
100
AcDbEntity
100
AcDbLine
  8
Etch
 62
256
370
-1
  6
ByLayer
 10
128.4549999999999841
 20
112.061000000000007
 30
0.0
 11
127.9319999999999879
 21
112.9660000000000082
 31
0.0
  0
LINE
  5
125
100
AcDbEntity
100
AcDbLine
  8
Etch
 62
256
370
-1
  6
ByLayer
 10
127.9319999999999879
 20
112.9660000000000082
 30
0.0
 11
127.6089999999999804
 21
113.960000000000008
 31
0.0
  0
LINE
  5
126
100
AcDbEntity
100
AcDbLine
  8
Etch
 62
256
370
-1
  6
ByLayer
 10
127.6089999999999804
 20
113.960000000000008
 30
0.0
 11
127.5
 21
115.0
 31
0.0
  0
LINE
  5
127
100
AcDbEntity
100
AcDbLine
  8
Etch
 62
256
370
-1
  6
ByLayer
 10
212.0
 20
100.0
 30
0.0
 11
212.1310000000000002
 21
101.2470000000000283
 31
0.0
  0
LINE
  5
128
100
AcDbEntity
100
AcDbLine
  8
Etch
 62
256
370
-1
  6
ByLayer
 10
212.1310000000000002
 20
101.2470000000000283
 30
0.0
 11
212.5190000000000055
 21
102.4399999999999693
 31
0.0
  0
LINE
  5
129
100
AcDbEntity
100
AcDbLine
  8
Etch
 62
256
370
-1
  6
ByLayer
 10
212.5190000000000055
 20
102.4399999999999693
 30
0.0
 11
213.146000000000015
 21
103.5269999999999868
 31
0.0
  0
LINE
  5
12A
100
AcDbEntity
100
AcDbLine
  8
Etch
 62
256
370
-1
  6
ByLayer
 10
213.146000000000015
 20
103.5269999999999868
 30
0.0
 11
213.9850000000000136
 21
104.4590000000000032
 31
0.0
  0
LINE
  5
12B
100
AcDbEntity
100
AcDbLine
  8
Etch
 62
256
370
-1
  6
ByLayer
 10
213.9850000000000136
 20
104.4590000000000032
 30
0.0
 11
215.0
 21
105.195999999999998
 31
0.0
  0
LINE
  5
12C
100
AcDbEntity
100
AcDbLine
  8
Etch
 62
256
370
-1
  6
ByLayer
 10
215.0
 20
105.195999999999998
 30
0.0
 11
216.146000000000015
 21
105.7059999999999889
 31
0.0
  0
LINE
  5
12D
100
AcDbEntity
100
AcDbLine
  8
Etch
 62
256
370
-1
  6
ByLayer
 10
216.146000000000015
 20
105.7059999999999889
 30
0.0
 11
217.3729999999999905
 21
105.967000000000013
 31
0.0
  0
LINE
  5
12E
100
AcDbEntity
100
AcDbLine
  8
Etch
 62
256
370
-1
  6
ByLayer
 10
217.3729999999999905
 20
105.967000000000013
 30
0.0
 11
218.0
 21
105.9669999999999987
 31
0.0
  0
LINE
  5
12F
100
AcDbEntity
100
AcDbLine
  8
Etch
 62
256
370
-1
  6
ByLayer
 10
218.0
 20
105.9669999999999987
 30
0.0
 11
218.0
 21
105.9999999999999858
 31
0.0
  0
LINE
  5
130
100
AcDbEntity
100
AcDbLine
  8
Etch
 62
256
370
-1
  6
ByLayer
 10
218.0
 20
105.9999999999999858
 30
0.0
 11
262.0
 21
106.0
 31
0.0
  0
LINE
  5
131
100
AcDbEntity
100
AcDbLine
  8
Etch
 62
256
370
-1
  6
ByLayer
 10
262.0
 20
106.0
 30
0.0
 11
262.0
 21
105.9669999999999987
 31
0.0
  0
LINE
  5
132
100
AcDbEntity
100
AcDbLine
  8
Etch
 62
256
370
-1
  6
ByLayer
 10
262.0
 20
105.9669999999999987
 30
0.0
 11
262.6270000000000095
 21
105.967000000000013
 31
0.0
  0
LINE
  5
133
100
AcDbEntity
100
AcDbLine
  8
Etch
 62
256
370
-1
  6
ByLayer
 10
262.6270000000000095
 20
105.967000000000013
 30
0.0
 11
263.853999999999985
 21
105.7059999999999889
 31
0.0
  0
LINE
  5
134
100
AcDbEntity
100
AcDbLine
  8
Etch
 62
256
370
-1
  6
ByLayer
 10
263.853999999999985
 20
105.7059999999999889
 30
0.0
 11
265.0
 21
105.195999999999998
 31
0.0
  0
LINE
  5
135
100
AcDbEntity
100
AcDbLine
  8
Etch
 62
256
370
-1
  6
ByLayer
 10
265.0
 20
105.195999999999998
 30
0.0
 11
266.0149999999999864
 21
104.458999999999989
 31
0.0
  0
LINE
  5
136
100
AcDbEntity
100
AcDbLine
  8
Etch
 62
256
370
-1
  6
ByLayer
 10
266.0149999999999864
 20
104.458999999999989
 30
0.0
 11
266.853999999999985
 21
103.5269999999999868
 31
0.0
  0
LINE
  5
137
100
AcDbEntity
100
AcDbLine
  8
Etch
 62
256
370
-1
  6
ByLayer
 10
266.853999999999985
 20
103.5269999999999868
 30
0.0
 11
267.4809999999999945
 21
102.4399999999999693
 31
0.0
  0
LINE
  5
138
100
AcDbEntity
100
AcDbLine
  8
Etch
 62
256
370
-1
  6
ByLayer
 10
267.4809999999999945
 20
102.4399999999999693
 30
0.0
 11
267.8690000000000282
 21
101.2470000000000425
 31
0.0
  0
LINE
  5
139
100
AcDbEntity
100
AcDbLine
  8
Etch
 62
256
370
-1
  6
ByLayer
 10
267.8690000000000282
 20
101.2470000000000425
 30
0.0
 11
268.0
 21
100.0
 31
0.0
  0
LINE
  5
13A
100
AcDbEntity
100
AcDbLine
  8
Etch
 62
256
370
-1
  6
ByLayer
 10
268.0
 20
100.0
 30
0.0
 11
267.8690000000000282
 21
98.7529999999999575
 31
0.0
  0
LINE
  5
13B
100
AcDbEntity
100
AcDbLine
  8
Etch
 62
256
370
-1
  6
ByLayer
 10
267.8690000000000282
 20
98.7529999999999575
 30
0.0
 11
267.4809999999999945
 21
97.5600000000000165
 31
0.0
  0
LINE
  5
13C
100
AcDbEntity
100
AcDbLine
  8
Etch
 62
256
370
-1
  6
ByLayer
 10
267.4809999999999945
 20
97.5600000000000165
 30
0.0
 11
266.853999999999985
 21
96.472999999999999
 31
0.0
  0
LINE
  5
13D
100
AcDbEntity
100
AcDbLine
  8
Etch
 62
256
370
-1
  6
ByLayer
 10
266.853999999999985
 20
96.472999999999999
 30
0.0
 11
266.0149999999999864
 21
95.5409999999999968
 31
0.0
  0
LINE
  5
13E
100
AcDbEntity
100
AcDbLine
  8
Etch
 62
256
370
-1
  6
ByLayer
 10
266.0149999999999864
 20
95.5409999999999968
 30
0.0
 11
265.0
 21
94.8039999999999878
 31
0.0
  0
LINE
  5
13F
100
AcDbEntity
100
AcDbLine
  8
Etch
 62
256
370
-1
  6
ByLayer
 10
265.0
 20
94.8039999999999878
 30
0.0
 11
263.853999999999985
 21
94.2940000000000111
 31
0.0
  0
LINE
  5
140
100
AcDbEntity
100
AcDbLine
  8
Etch
 62
256
370
-1
  6
ByLayer
 10
263.853999999999985
 20
94.2940000000000111
 30
0.0
 11
262.6270000000000095
 21
94.0329999999999728
 31
0.0
  0
LINE
  5
141
100
AcDbEntity
100
AcDbLine
  8
Etch
 62
256
370
-1
  6
ByLayer
 10
262.6270000000000095
 20
94.0329999999999728
 30
0.0
 11
262.0
 21
94.032999999999987
 31
0.0
  0
LINE
  5
142
100
AcDbEntity
100
AcDbLine
  8
Etch
 62
256
370
-1
  6
ByLayer
 10
262.0
 20
94.032999999999987
 30
0.0
 11
262.0
 21
94.0
 31
0.0
  0
LINE
  5
143
100
AcDbEntity
100
AcDbLine
  8
Etch
 62
256
370
-1
  6
ByLayer
 10
262.0
 20
94.0
 30
0.0
 11
218.0
 21
94.0000000000000142
 31
0.0
  0
LINE
  5
144
100
AcDbEntity
100
AcDbLine
  8
Etch
 62
256
370
-1
  6
ByLayer
 10
218.0
 20
94.0000000000000142
 30
0.0
 11
218.0
 21
94.0330000000000013
 31
0.0
  0
LINE
  5
145
100
AcDbEntity
100
AcDbLine
  8
Etch
 62
256
370
-1
  6
ByLayer
 10
218.0
 20
94.0330000000000013
 30
0.0
 11
217.3729999999999905
 21
94.0330000000000013
 31
0.0
  0
LINE
  5
146
100
AcDbEntity
100
AcDbLine
  8
Etch
 62
256
370
-1
  6
ByLayer
 10
217.3729999999999905
 20
94.0330000000000013
 30
0.0
 11
216.1459999999999866
 21
94.2940000000000111
 31
0.0
  0
LINE
  5
147
100
AcDbEntity
100
AcDbLine
  8
Etch
 62
256
370
-1
  6
ByLayer
 10
216.1459999999999866
 20
94.2940000000000111
 30
0.0
 11
215.0
 21
94.8040000000000163
 31
0.0
  0
LINE
  5
148
100
AcDbEntity
100
AcDbLine
  8
Etch
 62
256
370
-1
  6
ByLayer
 10
215.0
 20
94.8040000000000163
 30
0.0
 11
213.9850000000000136
 21
95.541000000000011
 31
0.0
  0
LINE
  5
149
100
AcDbEntity
100
AcDbLine
  8
Etch
 62
256
370
-1
  6
ByLayer
 10
213.9850000000000136
 20
95.541000000000011
 30
0.0
 11
213.146000000000015
 21
96.4730000000000132
 31
0.0
  0
LINE
  5
14A
100
AcDbEntity
100
AcDbLine
  8
Etch
 62
256
370
-1
  6
ByLayer
 10
213.146000000000015
 20
96.4730000000000132
 30
0.0
 11
212.5190000000000055
 21
97.5600000000000449
 31
0.0
  0
LINE
  5
14B
100
AcDbEntity
100
AcDbLine
  8
Etch
 62
256
370
-1
  6
ByLayer
 10
212.5190000000000055
 20
97.5600000000000449
 30
0.0
 11
212.1310000000000002
 21
98.7529999999999717
 31
0.0
  0
LINE
  5
14C
100
AcDbEntity
100
AcDbLine
  8
Etch
 62
256
370
-1
  6
ByLayer
 10
212.1310000000000002
 20
98.7529999999999717
 30
0.0
 11
212.0
 21
100.0
 31
0.0
  0
LINE
  5
14D
100
AcDbEntity
100
AcDbLine
  8
Drawings
 62
256
370
-1
  6
ByLayer
 10
150.0
 20
300.0
 30
0.0
 11
150.0
 21
0.0
 31
0.0
  0
MTEXT
  5
14E
100
AcDbEntity
100
AcDbMText
  8
Etch
 62
256
370
-1
  6
ByLayer
 10
150.0
 20
40.0
 30
0.0
 40
10.0
 41
100.0
 71
5
 72
0
  1
COIL\~WINDER\~ACTION\PZACH\~HOEKEN.COM
  7
standard
 50
0.0
 73
1
 44
1.0
  0
ENDSEC
  0
SECTION
  2
OBJECTS
  0
DICTIONARY
  5
C
100
AcDbDictionary
280
0
281
1
  3
ACAD_GROUP
350
D
  3
ACAD_LAYOUT
350
1A
  3
ACAD_MLINESTYLE
350
17
  3
ACAD_PLOTSETTINGS
350
19
  3
ACAD_PLOTSTYLENAME
350
E
  3
AcDbVariableDictionary
350
14F
  0
DICTIONARY
  5
D
100
AcDbDictionary
280
0
281
1
  0
ACDBDICTIONARYWDFLT
  5
E
100
AcDbDictionary
281
1
  3
Normal
350
F
100
AcDbDictionaryWithDefault
340
F
  0
ACDBPLACEHOLDER
  5
F
  0
DICTIONARY
  5
17
100
AcDbDictionary
280
0
281
1
  3
Standard
350
18
  0
MLINESTYLE
  5
18
100
AcDbMlineStyle
  2
STANDARD
 70
0
  3

 62
256
 51
90.0
 52
90.0
 71
2
 49
0.5
 62
256
  6
BYLAYER
 49
-0.5
 62
256
  6
BYLAYER
  0
DICTIONARY
  5
19
100
AcDbDictionary
280
0
281
1
  0
DICTIONARY
  5
1A
100
AcDbDictionary
281
1
  3
Layout1
350
1E
  3
Layout2
350
26
  3
Model
350
22
  0
LAYOUT
  5
1E
100
AcDbPlotSettings
  1

  2
C:\Program Files\AutoCAD 2002\plotters\DWF ePlot (optimized for plotting).pc3
  4

  6

 40
0.0
 41
0.0
 42
0.0
 43
0.0
 44
0.0
 45
0.0
 46
0.0
 47
0.0
 48
0.0
 49
0.0
140
0.0
141
0.0
142
1.0
143
1.0
 70
688
 72
0
 73
0
 74
5
  7

 75
16
147
1.0
148
0.0
149
0.0
100
AcDbLayout
  1
Layout1
 70
1
 71
1
 10
0.0
 20
0.0
 11
420.0
 21
297.0
 12
0.0
 22
0.0
 32
0.0
 14
100000000000000000000.0
 24
100000000000000000000.0
 34
100000000000000000000.0
 15
-100000000000000000000.0
 25
-100000000000000000000.0
 35
-100000000000000000000.0
146
0.0
 13
0.0
 23
0.0
 33
0.0
 16
1.0
 26
0.0
 36
0.0
 17
0.0
 27
1.0
 37
0.0
 76
0
330
1B
  0
LAYOUT
  5
22
100
AcDbPlotSettings
  1

  2
C:\Program Files\AutoCAD 2002\plotters\DWF ePlot (optimized for plotting).pc3
  4

  6

 40
0.0
 41
0.0
 42
0.0
 43
0.0
 44
0.0
 45
0.0
 46
0.0
 47
0.0
 48
0.0
 49
0.0
140
0.0
141
0.0
142
1.0
143
1.0
 70
1712
 72
0
 73
0
 74
0
  7

 75
0
147
1.0
148
0.0
149
0.0
100
AcDbLayout
  1
Model
 70
1
 71
0
 10
0.0
 20
0.0
 11
12.0
 21
9.0
 12
0.0
 22
0.0
 32
0.0
 14
0.0
 24
0.0
 34
0.0
 15
0.0
 25
0.0
 35
0.0
146
0.0
 13
0.0
 23
0.0
 33
0.0
 16
1.0
 26
0.0
 36
0.0
 17
0.0
 27
1.0
 37
0.0
 76
0
330
1F
  0
LAYOUT
  5
26
100
AcDbPlotSettings
  1

  2
C:\Program Files\AutoCAD 2002\plotters\DWF ePlot (optimized for plotting).pc3
  4

  6

 40
0.0
 41
0.0
 42
0.0
 43
0.0
 44
0.0
 45
0.0
 46
0.0
 47
0.0
 48
0.0
 49
0.0
140
0.0
141
0.0
142
1.0
143
1.0
 70
688
 72
0
 73
0
 74
5
  7

 75
16
147
1.0
148
0.0
149
0.0
100
AcDbLayout
  1
Layout2
 70
1
 71
2
 10
0.0
 20
0.0
 11
12.0
 21
9.0
 12
0.0
 22
0.0
 32
0.0
 14
0.0
 24
0.0
 34
0.0
 15
0.0
 25
0.0
 35
0.0
146
0.0
 13
0.0
 23
0.0
 33
0.0
 16
1.0
 26
0.0
 36
0.0
 17
0.0
 27
1.0
 37
0.0
 76
0
330
23
  0
DICTIONARY
  5
14F
100
AcDbDictionary
281
1
  3
DIMASSOC
350
151
  3
HIDETEXT
350
150
  0
DICTIONARYVAR
  5
150
100
DictionaryVariables
280
0
  1
2
  0
DICTIONARYVAR
  5
151
100
DictionaryVariables
280
0
  1
1
  0
ENDSEC
  0
EOF
