  0
SECTION
  2
ENTITIES
  0
LINE
 10
-10.000000
 11
-10.000000
 20
0.000000
 21
54.000000
  0
LINE
 10
-10.000000
 11
64.000000
 20
54.000000
 21
54.000000
  0
LINE
 10
64.000000
 11
64.000000
 20
54.000000
 21
0.000000
  0
LINE
 10
64.000000
 11
-10.000000
 20
0.000000
 21
0.000000
  0
LINE
 10
-6.500000
 11
-6.467000
 20
10.000000
 21
10.312000
  0
LINE
 10
-6.467000
 11
-6.370000
 20
10.312000
 21
10.610000
  0
LINE
 10
-6.370000
 11
-6.214000
 20
10.610000
 21
10.882000
  0
LINE
 10
-6.214000
 11
-6.004000
 20
10.882000
 21
11.115000
  0
LINE
 10
-6.004000
 11
-5.750000
 20
11.115000
 21
11.299000
  0
LINE
 10
-5.750000
 11
-5.464000
 20
11.299000
 21
11.427000
  0
LINE
 10
-5.464000
 11
-5.157000
 20
11.427000
 21
11.492000
  0
LINE
 10
-5.157000
 11
-4.843000
 20
11.492000
 21
11.492000
  0
LINE
 10
-4.843000
 11
-4.536000
 20
11.492000
 21
11.427000
  0
LINE
 10
-4.536000
 11
-4.250000
 20
11.427000
 21
11.299000
  0
LINE
 10
-4.250000
 11
-3.996000
 20
11.299000
 21
11.115000
  0
LINE
 10
-3.996000
 11
-3.786000
 20
11.115000
 21
10.882000
  0
LINE
 10
-3.786000
 11
-3.630000
 20
10.882000
 21
10.610000
  0
LINE
 10
-3.630000
 11
-3.533000
 20
10.610000
 21
10.312000
  0
LINE
 10
-3.533000
 11
-3.500000
 20
10.312000
 21
10.000000
  0
LINE
 10
-3.500000
 11
-3.533000
 20
10.000000
 21
9.688000
  0
LINE
 10
-3.533000
 11
-3.630000
 20
9.688000
 21
9.390000
  0
LINE
 10
-3.630000
 11
-3.786000
 20
9.390000
 21
9.118000
  0
LINE
 10
-3.786000
 11
-3.996000
 20
9.118000
 21
8.885000
  0
LINE
 10
-3.996000
 11
-4.250000
 20
8.885000
 21
8.701000
  0
LINE
 10
-4.250000
 11
-4.536000
 20
8.701000
 21
8.573000
  0
LINE
 10
-4.536000
 11
-4.843000
 20
8.573000
 21
8.508000
  0
LINE
 10
-4.843000
 11
-5.157000
 20
8.508000
 21
8.508000
  0
LINE
 10
-5.157000
 11
-5.464000
 20
8.508000
 21
8.573000
  0
LINE
 10
-5.464000
 11
-5.750000
 20
8.573000
 21
8.701000
  0
LINE
 10
-5.750000
 11
-6.004000
 20
8.701000
 21
8.885000
  0
LINE
 10
-6.004000
 11
-6.214000
 20
8.885000
 21
9.118000
  0
LINE
 10
-6.214000
 11
-6.370000
 20
9.118000
 21
9.390000
  0
LINE
 10
-6.370000
 11
-6.467000
 20
9.390000
 21
9.688000
  0
LINE
 10
-6.467000
 11
-6.500000
 20
9.688000
 21
10.000000
  0
LINE
 10
-6.500000
 11
-6.467000
 20
44.000000
 21
44.312000
  0
LINE
 10
-6.467000
 11
-6.370000
 20
44.312000
 21
44.610000
  0
LINE
 10
-6.370000
 11
-6.214000
 20
44.610000
 21
44.882000
  0
LINE
 10
-6.214000
 11
-6.004000
 20
44.882000
 21
45.115000
  0
LINE
 10
-6.004000
 11
-5.750000
 20
45.115000
 21
45.299000
  0
LINE
 10
-5.750000
 11
-5.464000
 20
45.299000
 21
45.427000
  0
LINE
 10
-5.464000
 11
-5.157000
 20
45.427000
 21
45.492000
  0
LINE
 10
-5.157000
 11
-4.843000
 20
45.492000
 21
45.492000
  0
LINE
 10
-4.843000
 11
-4.536000
 20
45.492000
 21
45.427000
  0
LINE
 10
-4.536000
 11
-4.250000
 20
45.427000
 21
45.299000
  0
LINE
 10
-4.250000
 11
-3.996000
 20
45.299000
 21
45.115000
  0
LINE
 10
-3.996000
 11
-3.786000
 20
45.115000
 21
44.882000
  0
LINE
 10
-3.786000
 11
-3.630000
 20
44.882000
 21
44.610000
  0
LINE
 10
-3.630000
 11
-3.533000
 20
44.610000
 21
44.312000
  0
LINE
 10
-3.533000
 11
-3.500000
 20
44.312000
 21
44.000000
  0
LINE
 10
-3.500000
 11
-3.533000
 20
44.000000
 21
43.688000
  0
LINE
 10
-3.533000
 11
-3.630000
 20
43.688000
 21
43.390000
  0
LINE
 10
-3.630000
 11
-3.786000
 20
43.390000
 21
43.118000
  0
LINE
 10
-3.786000
 11
-3.996000
 20
43.118000
 21
42.885000
  0
LINE
 10
-3.996000
 11
-4.250000
 20
42.885000
 21
42.701000
  0
LINE
 10
-4.250000
 11
-4.536000
 20
42.701000
 21
42.573000
  0
LINE
 10
-4.536000
 11
-4.843000
 20
42.573000
 21
42.508000
  0
LINE
 10
-4.843000
 11
-5.157000
 20
42.508000
 21
42.508000
  0
LINE
 10
-5.157000
 11
-5.464000
 20
42.508000
 21
42.573000
  0
LINE
 10
-5.464000
 11
-5.750000
 20
42.573000
 21
42.701000
  0
LINE
 10
-5.750000
 11
-6.004000
 20
42.701000
 21
42.885000
  0
LINE
 10
-6.004000
 11
-6.214000
 20
42.885000
 21
43.118000
  0
LINE
 10
-6.214000
 11
-6.370000
 20
43.118000
 21
43.390000
  0
LINE
 10
-6.370000
 11
-6.467000
 20
43.390000
 21
43.688000
  0
LINE
 10
-6.467000
 11
-6.500000
 20
43.688000
 21
44.000000
  0
LINE
 10
57.500000
 11
57.533000
 20
10.000000
 21
10.312000
  0
LINE
 10
57.533000
 11
57.630000
 20
10.312000
 21
10.610000
  0
LINE
 10
57.630000
 11
57.786000
 20
10.610000
 21
10.882000
  0
LINE
 10
57.786000
 11
57.996000
 20
10.882000
 21
11.115000
  0
LINE
 10
57.996000
 11
58.250000
 20
11.115000
 21
11.299000
  0
LINE
 10
58.250000
 11
58.536000
 20
11.299000
 21
11.427000
  0
LINE
 10
58.536000
 11
58.843000
 20
11.427000
 21
11.492000
  0
LINE
 10
58.843000
 11
59.157000
 20
11.492000
 21
11.492000
  0
LINE
 10
59.157000
 11
59.464000
 20
11.492000
 21
11.427000
  0
LINE
 10
59.464000
 11
59.750000
 20
11.427000
 21
11.299000
  0
LINE
 10
59.750000
 11
60.004000
 20
11.299000
 21
11.115000
  0
LINE
 10
60.004000
 11
60.214000
 20
11.115000
 21
10.882000
  0
LINE
 10
60.214000
 11
60.370000
 20
10.882000
 21
10.610000
  0
LINE
 10
60.370000
 11
60.467000
 20
10.610000
 21
10.312000
  0
LINE
 10
60.467000
 11
60.500000
 20
10.312000
 21
10.000000
  0
LINE
 10
60.500000
 11
60.467000
 20
10.000000
 21
9.688000
  0
LINE
 10
60.467000
 11
60.370000
 20
9.688000
 21
9.390000
  0
LINE
 10
60.370000
 11
60.214000
 20
9.390000
 21
9.118000
  0
LINE
 10
60.214000
 11
60.004000
 20
9.118000
 21
8.885000
  0
LINE
 10
60.004000
 11
59.750000
 20
8.885000
 21
8.701000
  0
LINE
 10
59.750000
 11
59.464000
 20
8.701000
 21
8.573000
  0
LINE
 10
59.464000
 11
59.157000
 20
8.573000
 21
8.508000
  0
LINE
 10
59.157000
 11
58.843000
 20
8.508000
 21
8.508000
  0
LINE
 10
58.843000
 11
58.536000
 20
8.508000
 21
8.573000
  0
LINE
 10
58.536000
 11
58.250000
 20
8.573000
 21
8.701000
  0
LINE
 10
58.250000
 11
57.996000
 20
8.701000
 21
8.885000
  0
LINE
 10
57.996000
 11
57.786000
 20
8.885000
 21
9.118000
  0
LINE
 10
57.786000
 11
57.630000
 20
9.118000
 21
9.390000
  0
LINE
 10
57.630000
 11
57.533000
 20
9.390000
 21
9.688000
  0
LINE
 10
57.533000
 11
57.500000
 20
9.688000
 21
10.000000
  0
LINE
 10
57.500000
 11
57.533000
 20
44.000000
 21
44.312000
  0
LINE
 10
57.533000
 11
57.630000
 20
44.312000
 21
44.610000
  0
LINE
 10
57.630000
 11
57.786000
 20
44.610000
 21
44.882000
  0
LINE
 10
57.786000
 11
57.996000
 20
44.882000
 21
45.115000
  0
LINE
 10
57.996000
 11
58.250000
 20
45.115000
 21
45.299000
  0
LINE
 10
58.250000
 11
58.536000
 20
45.299000
 21
45.427000
  0
LINE
 10
58.536000
 11
58.843000
 20
45.427000
 21
45.492000
  0
LINE
 10
58.843000
 11
59.157000
 20
45.492000
 21
45.492000
  0
LINE
 10
59.157000
 11
59.464000
 20
45.492000
 21
45.427000
  0
LINE
 10
59.464000
 11
59.750000
 20
45.427000
 21
45.299000
  0
LINE
 10
59.750000
 11
60.004000
 20
45.299000
 21
45.115000
  0
LINE
 10
60.004000
 11
60.214000
 20
45.115000
 21
44.882000
  0
LINE
 10
60.214000
 11
60.370000
 20
44.882000
 21
44.610000
  0
LINE
 10
60.370000
 11
60.467000
 20
44.610000
 21
44.312000
  0
LINE
 10
60.467000
 11
60.500000
 20
44.312000
 21
44.000000
  0
LINE
 10
60.500000
 11
60.467000
 20
44.000000
 21
43.688000
  0
LINE
 10
60.467000
 11
60.370000
 20
43.688000
 21
43.390000
  0
LINE
 10
60.370000
 11
60.214000
 20
43.390000
 21
43.118000
  0
LINE
 10
60.214000
 11
60.004000
 20
43.118000
 21
42.885000
  0
LINE
 10
60.004000
 11
59.750000
 20
42.885000
 21
42.701000
  0
LINE
 10
59.750000
 11
59.464000
 20
42.701000
 21
42.573000
  0
LINE
 10
59.464000
 11
59.157000
 20
42.573000
 21
42.508000
  0
LINE
 10
59.157000
 11
58.843000
 20
42.508000
 21
42.508000
  0
LINE
 10
58.843000
 11
58.536000
 20
42.508000
 21
42.573000
  0
LINE
 10
58.536000
 11
58.250000
 20
42.573000
 21
42.701000
  0
LINE
 10
58.250000
 11
57.996000
 20
42.701000
 21
42.885000
  0
LINE
 10
57.996000
 11
57.786000
 20
42.885000
 21
43.118000
  0
LINE
 10
57.786000
 11
57.630000
 20
43.118000
 21
43.390000
  0
LINE
 10
57.630000
 11
57.533000
 20
43.390000
 21
43.688000
  0
LINE
 10
57.533000
 11
57.500000
 20
43.688000
 21
44.000000
  0
ENDSEC
  0
EOF
