  0
SECTION
  2
ENTITIES
  0
LINE
 10
-18.000000
 11
-17.781000
 20
10.000000
 21
12.079000
  0
LINE
 10
-17.781000
 11
-17.135000
 20
12.079000
 21
14.067000
  0
LINE
 10
-17.135000
 11
-16.090000
 20
14.067000
 21
15.878000
  0
LINE
 10
-16.090000
 11
-14.691000
 20
15.878000
 21
17.431000
  0
LINE
 10
-14.691000
 11
-13.000000
 20
17.431000
 21
18.660000
  0
LINE
 10
-13.000000
 11
-11.090000
 20
18.660000
 21
19.511000
  0
LINE
 10
-11.090000
 11
-10.000000
 20
19.511000
 21
19.742000
  0
LINE
 10
-10.000000
 11
-10.000000
 20
19.742000
 21
20.000000
  0
LINE
 10
-10.000000
 11
36.000000
 20
20.000000
 21
20.000000
  0
LINE
 10
36.000000
 11
36.000000
 20
20.000000
 21
19.742000
  0
LINE
 10
36.000000
 11
37.090000
 20
19.742000
 21
19.511000
  0
LINE
 10
37.090000
 11
39.000000
 20
19.511000
 21
18.660000
  0
LINE
 10
39.000000
 11
40.691000
 20
18.660000
 21
17.431000
  0
LINE
 10
40.691000
 11
42.090000
 20
17.431000
 21
15.878000
  0
LINE
 10
42.090000
 11
43.135000
 20
15.878000
 21
14.067000
  0
LINE
 10
43.135000
 11
43.781000
 20
14.067000
 21
12.079000
  0
LINE
 10
43.781000
 11
44.000000
 20
12.079000
 21
10.000000
  0
LINE
 10
44.000000
 11
43.781000
 20
10.000000
 21
7.921000
  0
LINE
 10
43.781000
 11
43.135000
 20
7.921000
 21
5.933000
  0
LINE
 10
43.135000
 11
42.090000
 20
5.933000
 21
4.122000
  0
LINE
 10
42.090000
 11
40.691000
 20
4.122000
 21
2.569000
  0
LINE
 10
40.691000
 11
39.000000
 20
2.569000
 21
1.340000
  0
LINE
 10
39.000000
 11
37.090000
 20
1.340000
 21
0.489000
  0
LINE
 10
37.090000
 11
36.000000
 20
0.489000
 21
0.258000
  0
LINE
 10
36.000000
 11
36.000000
 20
0.258000
 21
0.000000
  0
LINE
 10
36.000000
 11
-10.000000
 20
0.000000
 21
0.000000
  0
LINE
 10
-10.000000
 11
-10.000000
 20
0.000000
 21
0.258000
  0
LINE
 10
-10.000000
 11
-11.090000
 20
0.258000
 21
0.489000
  0
LINE
 10
-11.090000
 11
-13.000000
 20
0.489000
 21
1.340000
  0
LINE
 10
-13.000000
 11
-14.691000
 20
1.340000
 21
2.569000
  0
LINE
 10
-14.691000
 11
-16.090000
 20
2.569000
 21
4.122000
  0
LINE
 10
-16.090000
 11
-17.135000
 20
4.122000
 21
5.933000
  0
LINE
 10
-17.135000
 11
-17.781000
 20
5.933000
 21
7.921000
  0
LINE
 10
-17.781000
 11
-18.000000
 20
7.921000
 21
10.000000
  0
LINE
 10
-9.500000
 11
-9.467000
 20
10.000000
 21
10.312000
  0
LINE
 10
-9.467000
 11
-9.370000
 20
10.312000
 21
10.610000
  0
LINE
 10
-9.370000
 11
-9.214000
 20
10.610000
 21
10.882000
  0
LINE
 10
-9.214000
 11
-9.004000
 20
10.882000
 21
11.115000
  0
LINE
 10
-9.004000
 11
-8.750000
 20
11.115000
 21
11.299000
  0
LINE
 10
-8.750000
 11
-8.464000
 20
11.299000
 21
11.427000
  0
LINE
 10
-8.464000
 11
-8.157000
 20
11.427000
 21
11.492000
  0
LINE
 10
-8.157000
 11
-7.843000
 20
11.492000
 21
11.492000
  0
LINE
 10
-7.843000
 11
-7.536000
 20
11.492000
 21
11.427000
  0
LINE
 10
-7.536000
 11
-7.250000
 20
11.427000
 21
11.299000
  0
LINE
 10
-7.250000
 11
-6.996000
 20
11.299000
 21
11.115000
  0
LINE
 10
-6.996000
 11
-6.786000
 20
11.115000
 21
10.882000
  0
LINE
 10
-6.786000
 11
-6.630000
 20
10.882000
 21
10.610000
  0
LINE
 10
-6.630000
 11
-6.533000
 20
10.610000
 21
10.312000
  0
LINE
 10
-6.533000
 11
-6.500000
 20
10.312000
 21
10.000000
  0
LINE
 10
-6.500000
 11
-6.533000
 20
10.000000
 21
9.688000
  0
LINE
 10
-6.533000
 11
-6.630000
 20
9.688000
 21
9.390000
  0
LINE
 10
-6.630000
 11
-6.786000
 20
9.390000
 21
9.118000
  0
LINE
 10
-6.786000
 11
-6.996000
 20
9.118000
 21
8.885000
  0
LINE
 10
-6.996000
 11
-7.250000
 20
8.885000
 21
8.701000
  0
LINE
 10
-7.250000
 11
-7.536000
 20
8.701000
 21
8.573000
  0
LINE
 10
-7.536000
 11
-7.843000
 20
8.573000
 21
8.508000
  0
LINE
 10
-7.843000
 11
-8.157000
 20
8.508000
 21
8.508000
  0
LINE
 10
-8.157000
 11
-8.464000
 20
8.508000
 21
8.573000
  0
LINE
 10
-8.464000
 11
-8.750000
 20
8.573000
 21
8.701000
  0
LINE
 10
-8.750000
 11
-9.004000
 20
8.701000
 21
8.885000
  0
LINE
 10
-9.004000
 11
-9.214000
 20
8.885000
 21
9.118000
  0
LINE
 10
-9.214000
 11
-9.370000
 20
9.118000
 21
9.390000
  0
LINE
 10
-9.370000
 11
-9.467000
 20
9.390000
 21
9.688000
  0
LINE
 10
-9.467000
 11
-9.500000
 20
9.688000
 21
10.000000
  0
LINE
 10
32.500000
 11
32.533000
 20
10.000000
 21
10.312000
  0
LINE
 10
32.533000
 11
32.630000
 20
10.312000
 21
10.610000
  0
LINE
 10
32.630000
 11
32.786000
 20
10.610000
 21
10.882000
  0
LINE
 10
32.786000
 11
32.996000
 20
10.882000
 21
11.115000
  0
LINE
 10
32.996000
 11
33.250000
 20
11.115000
 21
11.299000
  0
LINE
 10
33.250000
 11
33.536000
 20
11.299000
 21
11.427000
  0
LINE
 10
33.536000
 11
33.843000
 20
11.427000
 21
11.492000
  0
LINE
 10
33.843000
 11
34.157000
 20
11.492000
 21
11.492000
  0
LINE
 10
34.157000
 11
34.464000
 20
11.492000
 21
11.427000
  0
LINE
 10
34.464000
 11
34.750000
 20
11.427000
 21
11.299000
  0
LINE
 10
34.750000
 11
35.004000
 20
11.299000
 21
11.115000
  0
LINE
 10
35.004000
 11
35.214000
 20
11.115000
 21
10.882000
  0
LINE
 10
35.214000
 11
35.370000
 20
10.882000
 21
10.610000
  0
LINE
 10
35.370000
 11
35.467000
 20
10.610000
 21
10.312000
  0
LINE
 10
35.467000
 11
35.500000
 20
10.312000
 21
10.000000
  0
LINE
 10
35.500000
 11
35.467000
 20
10.000000
 21
9.688000
  0
LINE
 10
35.467000
 11
35.370000
 20
9.688000
 21
9.390000
  0
LINE
 10
35.370000
 11
35.214000
 20
9.390000
 21
9.118000
  0
LINE
 10
35.214000
 11
35.004000
 20
9.118000
 21
8.885000
  0
LINE
 10
35.004000
 11
34.750000
 20
8.885000
 21
8.701000
  0
LINE
 10
34.750000
 11
34.464000
 20
8.701000
 21
8.573000
  0
LINE
 10
34.464000
 11
34.157000
 20
8.573000
 21
8.508000
  0
LINE
 10
34.157000
 11
33.843000
 20
8.508000
 21
8.508000
  0
LINE
 10
33.843000
 11
33.536000
 20
8.508000
 21
8.573000
  0
LINE
 10
33.536000
 11
33.250000
 20
8.573000
 21
8.701000
  0
LINE
 10
33.250000
 11
32.996000
 20
8.701000
 21
8.885000
  0
LINE
 10
32.996000
 11
32.786000
 20
8.885000
 21
9.118000
  0
LINE
 10
32.786000
 11
32.630000
 20
9.118000
 21
9.390000
  0
LINE
 10
32.630000
 11
32.533000
 20
9.390000
 21
9.688000
  0
LINE
 10
32.533000
 11
32.500000
 20
9.688000
 21
10.000000
  0
ENDSEC
  0
EOF
