  0
SECTION
  2
ENTITIES
  0
LINE
 10
-13.500000
 11
-13.336000
 20
7.500000
 21
9.059000
  0
LINE
 10
-13.336000
 11
-12.852000
 20
9.059000
 21
10.551000
  0
LINE
 10
-12.852000
 11
-12.068000
 20
10.551000
 21
11.908000
  0
LINE
 10
-12.068000
 11
-11.018000
 20
11.908000
 21
13.074000
  0
LINE
 10
-11.018000
 11
-9.750000
 20
13.074000
 21
13.995000
  0
LINE
 10
-9.750000
 11
-8.318000
 20
13.995000
 21
14.633000
  0
LINE
 10
-8.318000
 11
-7.500000
 20
14.633000
 21
14.807000
  0
LINE
 10
-7.500000
 11
-7.500000
 20
14.807000
 21
15.000000
  0
LINE
 10
-7.500000
 11
22.500000
 20
15.000000
 21
15.000000
  0
LINE
 10
22.500000
 11
22.500000
 20
15.000000
 21
14.807000
  0
LINE
 10
22.500000
 11
23.318000
 20
14.807000
 21
14.633000
  0
LINE
 10
23.318000
 11
24.750000
 20
14.633000
 21
13.995000
  0
LINE
 10
24.750000
 11
26.018000
 20
13.995000
 21
13.074000
  0
LINE
 10
26.018000
 11
27.068000
 20
13.074000
 21
11.908000
  0
LINE
 10
27.068000
 11
27.852000
 20
11.908000
 21
10.551000
  0
LINE
 10
27.852000
 11
28.336000
 20
10.551000
 21
9.059000
  0
LINE
 10
28.336000
 11
28.500000
 20
9.059000
 21
7.500000
  0
LINE
 10
28.500000
 11
28.336000
 20
7.500000
 21
5.941000
  0
LINE
 10
28.336000
 11
27.852000
 20
5.941000
 21
4.449000
  0
LINE
 10
27.852000
 11
27.068000
 20
4.449000
 21
3.092000
  0
LINE
 10
27.068000
 11
26.018000
 20
3.092000
 21
1.926000
  0
LINE
 10
26.018000
 11
24.750000
 20
1.926000
 21
1.005000
  0
LINE
 10
24.750000
 11
23.318000
 20
1.005000
 21
0.367000
  0
LINE
 10
23.318000
 11
22.500000
 20
0.367000
 21
0.193000
  0
LINE
 10
22.500000
 11
22.500000
 20
0.193000
 21
0.000000
  0
LINE
 10
22.500000
 11
-7.500000
 20
0.000000
 21
0.000000
  0
LINE
 10
-7.500000
 11
-7.500000
 20
0.000000
 21
0.193000
  0
LINE
 10
-7.500000
 11
-8.318000
 20
0.193000
 21
0.367000
  0
LINE
 10
-8.318000
 11
-9.750000
 20
0.367000
 21
1.005000
  0
LINE
 10
-9.750000
 11
-11.018000
 20
1.005000
 21
1.926000
  0
LINE
 10
-11.018000
 11
-12.068000
 20
1.926000
 21
3.092000
  0
LINE
 10
-12.068000
 11
-12.852000
 20
3.092000
 21
4.449000
  0
LINE
 10
-12.852000
 11
-13.336000
 20
4.449000
 21
5.941000
  0
LINE
 10
-13.336000
 11
-13.500000
 20
5.941000
 21
7.500000
  0
LINE
 10
-7.500000
 11
-7.467000
 20
7.500000
 21
7.812000
  0
LINE
 10
-7.467000
 11
-7.370000
 20
7.812000
 21
8.110000
  0
LINE
 10
-7.370000
 11
-7.214000
 20
8.110000
 21
8.382000
  0
LINE
 10
-7.214000
 11
-7.004000
 20
8.382000
 21
8.615000
  0
LINE
 10
-7.004000
 11
-6.750000
 20
8.615000
 21
8.799000
  0
LINE
 10
-6.750000
 11
-6.464000
 20
8.799000
 21
8.927000
  0
LINE
 10
-6.464000
 11
-6.157000
 20
8.927000
 21
8.992000
  0
LINE
 10
-6.157000
 11
-5.843000
 20
8.992000
 21
8.992000
  0
LINE
 10
-5.843000
 11
-5.536000
 20
8.992000
 21
8.927000
  0
LINE
 10
-5.536000
 11
-5.250000
 20
8.927000
 21
8.799000
  0
LINE
 10
-5.250000
 11
-4.996000
 20
8.799000
 21
8.615000
  0
LINE
 10
-4.996000
 11
-4.786000
 20
8.615000
 21
8.382000
  0
LINE
 10
-4.786000
 11
-4.630000
 20
8.382000
 21
8.110000
  0
LINE
 10
-4.630000
 11
-4.533000
 20
8.110000
 21
7.812000
  0
LINE
 10
-4.533000
 11
-4.500000
 20
7.812000
 21
7.500000
  0
LINE
 10
-4.500000
 11
-4.533000
 20
7.500000
 21
7.188000
  0
LINE
 10
-4.533000
 11
-4.630000
 20
7.188000
 21
6.890000
  0
LINE
 10
-4.630000
 11
-4.786000
 20
6.890000
 21
6.618000
  0
LINE
 10
-4.786000
 11
-4.996000
 20
6.618000
 21
6.385000
  0
LINE
 10
-4.996000
 11
-5.250000
 20
6.385000
 21
6.201000
  0
LINE
 10
-5.250000
 11
-5.536000
 20
6.201000
 21
6.073000
  0
LINE
 10
-5.536000
 11
-5.843000
 20
6.073000
 21
6.008000
  0
LINE
 10
-5.843000
 11
-6.157000
 20
6.008000
 21
6.008000
  0
LINE
 10
-6.157000
 11
-6.464000
 20
6.008000
 21
6.073000
  0
LINE
 10
-6.464000
 11
-6.750000
 20
6.073000
 21
6.201000
  0
LINE
 10
-6.750000
 11
-7.004000
 20
6.201000
 21
6.385000
  0
LINE
 10
-7.004000
 11
-7.214000
 20
6.385000
 21
6.618000
  0
LINE
 10
-7.214000
 11
-7.370000
 20
6.618000
 21
6.890000
  0
LINE
 10
-7.370000
 11
-7.467000
 20
6.890000
 21
7.188000
  0
LINE
 10
-7.467000
 11
-7.500000
 20
7.188000
 21
7.500000
  0
LINE
 10
19.500000
 11
19.533000
 20
7.500000
 21
7.812000
  0
LINE
 10
19.533000
 11
19.630000
 20
7.812000
 21
8.110000
  0
LINE
 10
19.630000
 11
19.786000
 20
8.110000
 21
8.382000
  0
LINE
 10
19.786000
 11
19.996000
 20
8.382000
 21
8.615000
  0
LINE
 10
19.996000
 11
20.250000
 20
8.615000
 21
8.799000
  0
LINE
 10
20.250000
 11
20.536000
 20
8.799000
 21
8.927000
  0
LINE
 10
20.536000
 11
20.843000
 20
8.927000
 21
8.992000
  0
LINE
 10
20.843000
 11
21.157000
 20
8.992000
 21
8.992000
  0
LINE
 10
21.157000
 11
21.464000
 20
8.992000
 21
8.927000
  0
LINE
 10
21.464000
 11
21.750000
 20
8.927000
 21
8.799000
  0
LINE
 10
21.750000
 11
22.004000
 20
8.799000
 21
8.615000
  0
LINE
 10
22.004000
 11
22.214000
 20
8.615000
 21
8.382000
  0
LINE
 10
22.214000
 11
22.370000
 20
8.382000
 21
8.110000
  0
LINE
 10
22.370000
 11
22.467000
 20
8.110000
 21
7.812000
  0
LINE
 10
22.467000
 11
22.500000
 20
7.812000
 21
7.500000
  0
LINE
 10
22.500000
 11
22.467000
 20
7.500000
 21
7.188000
  0
LINE
 10
22.467000
 11
22.370000
 20
7.188000
 21
6.890000
  0
LINE
 10
22.370000
 11
22.214000
 20
6.890000
 21
6.618000
  0
LINE
 10
22.214000
 11
22.004000
 20
6.618000
 21
6.385000
  0
LINE
 10
22.004000
 11
21.750000
 20
6.385000
 21
6.201000
  0
LINE
 10
21.750000
 11
21.464000
 20
6.201000
 21
6.073000
  0
LINE
 10
21.464000
 11
21.157000
 20
6.073000
 21
6.008000
  0
LINE
 10
21.157000
 11
20.843000
 20
6.008000
 21
6.008000
  0
LINE
 10
20.843000
 11
20.536000
 20
6.008000
 21
6.073000
  0
LINE
 10
20.536000
 11
20.250000
 20
6.073000
 21
6.201000
  0
LINE
 10
20.250000
 11
19.996000
 20
6.201000
 21
6.385000
  0
LINE
 10
19.996000
 11
19.786000
 20
6.385000
 21
6.618000
  0
LINE
 10
19.786000
 11
19.630000
 20
6.618000
 21
6.890000
  0
LINE
 10
19.630000
 11
19.533000
 20
6.890000
 21
7.188000
  0
LINE
 10
19.533000
 11
19.500000
 20
7.188000
 21
7.500000
  0
ENDSEC
  0
EOF
