  0
SECTION
  2
ENTITIES
  0
LINE
 10
-10.000000
 11
-9.891000
 20
5.000000
 21
6.040000
  0
LINE
 10
-9.891000
 11
-9.568000
 20
6.040000
 21
7.034000
  0
LINE
 10
-9.568000
 11
-9.045000
 20
7.034000
 21
7.939000
  0
LINE
 10
-9.045000
 11
-8.346000
 20
7.939000
 21
8.716000
  0
LINE
 10
-8.346000
 11
-7.500000
 20
8.716000
 21
9.330000
  0
LINE
 10
-7.500000
 11
-6.545000
 20
9.330000
 21
9.755000
  0
LINE
 10
-6.545000
 11
-5.523000
 20
9.755000
 21
9.973000
  0
LINE
 10
-5.523000
 11
-5.000000
 20
9.973000
 21
9.973000
  0
LINE
 10
-5.000000
 11
-5.000000
 20
9.973000
 21
10.000000
  0
LINE
 10
-5.000000
 11
0.000000
 20
10.000000
 21
10.000000
  0
LINE
 10
0.000000
 11
0.000000
 20
10.000000
 21
70.000000
  0
LINE
 10
0.000000
 11
-5.000000
 20
70.000000
 21
70.000000
  0
LINE
 10
-5.000000
 11
-5.000000
 20
70.000000
 21
70.027000
  0
LINE
 10
-5.000000
 11
-5.523000
 20
70.027000
 21
70.027000
  0
LINE
 10
-5.523000
 11
-6.545000
 20
70.027000
 21
70.245000
  0
LINE
 10
-6.545000
 11
-7.500000
 20
70.245000
 21
70.670000
  0
LINE
 10
-7.500000
 11
-8.346000
 20
70.670000
 21
71.284000
  0
LINE
 10
-8.346000
 11
-9.045000
 20
71.284000
 21
72.061000
  0
LINE
 10
-9.045000
 11
-9.568000
 20
72.061000
 21
72.966000
  0
LINE
 10
-9.568000
 11
-9.891000
 20
72.966000
 21
73.960000
  0
LINE
 10
-9.891000
 11
-10.000000
 20
73.960000
 21
75.000000
  0
LINE
 10
-10.000000
 11
-9.891000
 20
75.000000
 21
76.040000
  0
LINE
 10
-9.891000
 11
-9.568000
 20
76.040000
 21
77.034000
  0
LINE
 10
-9.568000
 11
-9.045000
 20
77.034000
 21
77.939000
  0
LINE
 10
-9.045000
 11
-8.346000
 20
77.939000
 21
78.716000
  0
LINE
 10
-8.346000
 11
-7.500000
 20
78.716000
 21
79.330000
  0
LINE
 10
-7.500000
 11
-6.545000
 20
79.330000
 21
79.755000
  0
LINE
 10
-6.545000
 11
-5.523000
 20
79.755000
 21
79.973000
  0
LINE
 10
-5.523000
 11
-5.000000
 20
79.973000
 21
79.973000
  0
LINE
 10
-5.000000
 11
-5.000000
 20
79.973000
 21
80.000000
  0
LINE
 10
-5.000000
 11
30.000000
 20
80.000000
 21
80.000000
  0
LINE
 10
30.000000
 11
30.000000
 20
80.000000
 21
79.973000
  0
LINE
 10
30.000000
 11
30.523000
 20
79.973000
 21
79.973000
  0
LINE
 10
30.523000
 11
31.545000
 20
79.973000
 21
79.755000
  0
LINE
 10
31.545000
 11
32.500000
 20
79.755000
 21
79.330000
  0
LINE
 10
32.500000
 11
33.346000
 20
79.330000
 21
78.716000
  0
LINE
 10
33.346000
 11
34.045000
 20
78.716000
 21
77.939000
  0
LINE
 10
34.045000
 11
34.568000
 20
77.939000
 21
77.034000
  0
LINE
 10
34.568000
 11
34.891000
 20
77.034000
 21
76.040000
  0
LINE
 10
34.891000
 11
35.000000
 20
76.040000
 21
75.000000
  0
LINE
 10
35.000000
 11
34.891000
 20
75.000000
 21
73.960000
  0
LINE
 10
34.891000
 11
34.568000
 20
73.960000
 21
72.966000
  0
LINE
 10
34.568000
 11
34.045000
 20
72.966000
 21
72.061000
  0
LINE
 10
34.045000
 11
33.346000
 20
72.061000
 21
71.284000
  0
LINE
 10
33.346000
 11
32.500000
 20
71.284000
 21
70.670000
  0
LINE
 10
32.500000
 11
31.545000
 20
70.670000
 21
70.245000
  0
LINE
 10
31.545000
 11
30.523000
 20
70.245000
 21
70.027000
  0
LINE
 10
30.523000
 11
30.000000
 20
70.027000
 21
70.027000
  0
LINE
 10
30.000000
 11
30.000000
 20
70.027000
 21
70.000000
  0
LINE
 10
30.000000
 11
25.000000
 20
70.000000
 21
70.000000
  0
LINE
 10
25.000000
 11
25.000000
 20
70.000000
 21
10.000000
  0
LINE
 10
25.000000
 11
30.000000
 20
10.000000
 21
10.000000
  0
LINE
 10
30.000000
 11
30.000000
 20
10.000000
 21
9.973000
  0
LINE
 10
30.000000
 11
30.523000
 20
9.973000
 21
9.973000
  0
LINE
 10
30.523000
 11
31.545000
 20
9.973000
 21
9.755000
  0
LINE
 10
31.545000
 11
32.500000
 20
9.755000
 21
9.330000
  0
LINE
 10
32.500000
 11
33.346000
 20
9.330000
 21
8.716000
  0
LINE
 10
33.346000
 11
34.045000
 20
8.716000
 21
7.939000
  0
LINE
 10
34.045000
 11
34.568000
 20
7.939000
 21
7.034000
  0
LINE
 10
34.568000
 11
34.891000
 20
7.034000
 21
6.040000
  0
LINE
 10
34.891000
 11
35.000000
 20
6.040000
 21
5.000000
  0
LINE
 10
35.000000
 11
34.891000
 20
5.000000
 21
3.960000
  0
LINE
 10
34.891000
 11
34.568000
 20
3.960000
 21
2.966000
  0
LINE
 10
34.568000
 11
34.045000
 20
2.966000
 21
2.061000
  0
LINE
 10
34.045000
 11
33.346000
 20
2.061000
 21
1.284000
  0
LINE
 10
33.346000
 11
32.500000
 20
1.284000
 21
0.670000
  0
LINE
 10
32.500000
 11
31.545000
 20
0.670000
 21
0.245000
  0
LINE
 10
31.545000
 11
30.523000
 20
0.245000
 21
0.027000
  0
LINE
 10
30.523000
 11
30.000000
 20
0.027000
 21
0.027000
  0
LINE
 10
30.000000
 11
30.000000
 20
0.027000
 21
0.000000
  0
LINE
 10
30.000000
 11
-5.000000
 20
0.000000
 21
0.000000
  0
LINE
 10
-5.000000
 11
-5.000000
 20
0.000000
 21
0.027000
  0
LINE
 10
-5.000000
 11
-5.523000
 20
0.027000
 21
0.027000
  0
LINE
 10
-5.523000
 11
-6.545000
 20
0.027000
 21
0.245000
  0
LINE
 10
-6.545000
 11
-7.500000
 20
0.245000
 21
0.670000
  0
LINE
 10
-7.500000
 11
-8.346000
 20
0.670000
 21
1.284000
  0
LINE
 10
-8.346000
 11
-9.045000
 20
1.284000
 21
2.061000
  0
LINE
 10
-9.045000
 11
-9.568000
 20
2.061000
 21
2.966000
  0
LINE
 10
-9.568000
 11
-9.891000
 20
2.966000
 21
3.960000
  0
LINE
 10
-9.891000
 11
-10.000000
 20
3.960000
 21
5.000000
  0
LINE
 10
-6.000000
 11
-5.978000
 20
5.000000
 21
5.208000
  0
LINE
 10
-5.978000
 11
-5.914000
 20
5.208000
 21
5.407000
  0
LINE
 10
-5.914000
 11
-5.809000
 20
5.407000
 21
5.588000
  0
LINE
 10
-5.809000
 11
-5.669000
 20
5.588000
 21
5.743000
  0
LINE
 10
-5.669000
 11
-5.500000
 20
5.743000
 21
5.866000
  0
LINE
 10
-5.500000
 11
-5.309000
 20
5.866000
 21
5.951000
  0
LINE
 10
-5.309000
 11
-5.105000
 20
5.951000
 21
5.995000
  0
LINE
 10
-5.105000
 11
-4.895000
 20
5.995000
 21
5.995000
  0
LINE
 10
-4.895000
 11
-4.691000
 20
5.995000
 21
5.951000
  0
LINE
 10
-4.691000
 11
-4.500000
 20
5.951000
 21
5.866000
  0
LINE
 10
-4.500000
 11
-4.331000
 20
5.866000
 21
5.743000
  0
LINE
 10
-4.331000
 11
-4.191000
 20
5.743000
 21
5.588000
  0
LINE
 10
-4.191000
 11
-4.086000
 20
5.588000
 21
5.407000
  0
LINE
 10
-4.086000
 11
-4.022000
 20
5.407000
 21
5.208000
  0
LINE
 10
-4.022000
 11
-4.000000
 20
5.208000
 21
5.000000
  0
LINE
 10
-4.000000
 11
-4.022000
 20
5.000000
 21
4.792000
  0
LINE
 10
-4.022000
 11
-4.086000
 20
4.792000
 21
4.593000
  0
LINE
 10
-4.086000
 11
-4.191000
 20
4.593000
 21
4.412000
  0
LINE
 10
-4.191000
 11
-4.331000
 20
4.412000
 21
4.257000
  0
LINE
 10
-4.331000
 11
-4.500000
 20
4.257000
 21
4.134000
  0
LINE
 10
-4.500000
 11
-4.691000
 20
4.134000
 21
4.049000
  0
LINE
 10
-4.691000
 11
-4.895000
 20
4.049000
 21
4.005000
  0
LINE
 10
-4.895000
 11
-5.105000
 20
4.005000
 21
4.005000
  0
LINE
 10
-5.105000
 11
-5.309000
 20
4.005000
 21
4.049000
  0
LINE
 10
-5.309000
 11
-5.500000
 20
4.049000
 21
4.134000
  0
LINE
 10
-5.500000
 11
-5.669000
 20
4.134000
 21
4.257000
  0
LINE
 10
-5.669000
 11
-5.809000
 20
4.257000
 21
4.412000
  0
LINE
 10
-5.809000
 11
-5.914000
 20
4.412000
 21
4.593000
  0
LINE
 10
-5.914000
 11
-5.978000
 20
4.593000
 21
4.792000
  0
LINE
 10
-5.978000
 11
-6.000000
 20
4.792000
 21
5.000000
  0
LINE
 10
-6.000000
 11
-5.978000
 20
75.000000
 21
75.208000
  0
LINE
 10
-5.978000
 11
-5.914000
 20
75.208000
 21
75.407000
  0
LINE
 10
-5.914000
 11
-5.809000
 20
75.407000
 21
75.588000
  0
LINE
 10
-5.809000
 11
-5.669000
 20
75.588000
 21
75.743000
  0
LINE
 10
-5.669000
 11
-5.500000
 20
75.743000
 21
75.866000
  0
LINE
 10
-5.500000
 11
-5.309000
 20
75.866000
 21
75.951000
  0
LINE
 10
-5.309000
 11
-5.105000
 20
75.951000
 21
75.995000
  0
LINE
 10
-5.105000
 11
-4.895000
 20
75.995000
 21
75.995000
  0
LINE
 10
-4.895000
 11
-4.691000
 20
75.995000
 21
75.951000
  0
LINE
 10
-4.691000
 11
-4.500000
 20
75.951000
 21
75.866000
  0
LINE
 10
-4.500000
 11
-4.331000
 20
75.866000
 21
75.743000
  0
LINE
 10
-4.331000
 11
-4.191000
 20
75.743000
 21
75.588000
  0
LINE
 10
-4.191000
 11
-4.086000
 20
75.588000
 21
75.407000
  0
LINE
 10
-4.086000
 11
-4.022000
 20
75.407000
 21
75.208000
  0
LINE
 10
-4.022000
 11
-4.000000
 20
75.208000
 21
75.000000
  0
LINE
 10
-4.000000
 11
-4.022000
 20
75.000000
 21
74.792000
  0
LINE
 10
-4.022000
 11
-4.086000
 20
74.792000
 21
74.593000
  0
LINE
 10
-4.086000
 11
-4.191000
 20
74.593000
 21
74.412000
  0
LINE
 10
-4.191000
 11
-4.331000
 20
74.412000
 21
74.257000
  0
LINE
 10
-4.331000
 11
-4.500000
 20
74.257000
 21
74.134000
  0
LINE
 10
-4.500000
 11
-4.691000
 20
74.134000
 21
74.049000
  0
LINE
 10
-4.691000
 11
-4.895000
 20
74.049000
 21
74.005000
  0
LINE
 10
-4.895000
 11
-5.105000
 20
74.005000
 21
74.005000
  0
LINE
 10
-5.105000
 11
-5.309000
 20
74.005000
 21
74.049000
  0
LINE
 10
-5.309000
 11
-5.500000
 20
74.049000
 21
74.134000
  0
LINE
 10
-5.500000
 11
-5.669000
 20
74.134000
 21
74.257000
  0
LINE
 10
-5.669000
 11
-5.809000
 20
74.257000
 21
74.412000
  0
LINE
 10
-5.809000
 11
-5.914000
 20
74.412000
 21
74.593000
  0
LINE
 10
-5.914000
 11
-5.978000
 20
74.593000
 21
74.792000
  0
LINE
 10
-5.978000
 11
-6.000000
 20
74.792000
 21
75.000000
  0
LINE
 10
29.000000
 11
29.022000
 20
5.000000
 21
5.208000
  0
LINE
 10
29.022000
 11
29.086000
 20
5.208000
 21
5.407000
  0
LINE
 10
29.086000
 11
29.191000
 20
5.407000
 21
5.588000
  0
LINE
 10
29.191000
 11
29.331000
 20
5.588000
 21
5.743000
  0
LINE
 10
29.331000
 11
29.500000
 20
5.743000
 21
5.866000
  0
LINE
 10
29.500000
 11
29.691000
 20
5.866000
 21
5.951000
  0
LINE
 10
29.691000
 11
29.895000
 20
5.951000
 21
5.995000
  0
LINE
 10
29.895000
 11
30.105000
 20
5.995000
 21
5.995000
  0
LINE
 10
30.105000
 11
30.309000
 20
5.995000
 21
5.951000
  0
LINE
 10
30.309000
 11
30.500000
 20
5.951000
 21
5.866000
  0
LINE
 10
30.500000
 11
30.669000
 20
5.866000
 21
5.743000
  0
LINE
 10
30.669000
 11
30.809000
 20
5.743000
 21
5.588000
  0
LINE
 10
30.809000
 11
30.914000
 20
5.588000
 21
5.407000
  0
LINE
 10
30.914000
 11
30.978000
 20
5.407000
 21
5.208000
  0
LINE
 10
30.978000
 11
31.000000
 20
5.208000
 21
5.000000
  0
LINE
 10
31.000000
 11
30.978000
 20
5.000000
 21
4.792000
  0
LINE
 10
30.978000
 11
30.914000
 20
4.792000
 21
4.593000
  0
LINE
 10
30.914000
 11
30.809000
 20
4.593000
 21
4.412000
  0
LINE
 10
30.809000
 11
30.669000
 20
4.412000
 21
4.257000
  0
LINE
 10
30.669000
 11
30.500000
 20
4.257000
 21
4.134000
  0
LINE
 10
30.500000
 11
30.309000
 20
4.134000
 21
4.049000
  0
LINE
 10
30.309000
 11
30.105000
 20
4.049000
 21
4.005000
  0
LINE
 10
30.105000
 11
29.895000
 20
4.005000
 21
4.005000
  0
LINE
 10
29.895000
 11
29.691000
 20
4.005000
 21
4.049000
  0
LINE
 10
29.691000
 11
29.500000
 20
4.049000
 21
4.134000
  0
LINE
 10
29.500000
 11
29.331000
 20
4.134000
 21
4.257000
  0
LINE
 10
29.331000
 11
29.191000
 20
4.257000
 21
4.412000
  0
LINE
 10
29.191000
 11
29.086000
 20
4.412000
 21
4.593000
  0
LINE
 10
29.086000
 11
29.022000
 20
4.593000
 21
4.792000
  0
LINE
 10
29.022000
 11
29.000000
 20
4.792000
 21
5.000000
  0
LINE
 10
29.000000
 11
29.022000
 20
75.000000
 21
75.208000
  0
LINE
 10
29.022000
 11
29.086000
 20
75.208000
 21
75.407000
  0
LINE
 10
29.086000
 11
29.191000
 20
75.407000
 21
75.588000
  0
LINE
 10
29.191000
 11
29.331000
 20
75.588000
 21
75.743000
  0
LINE
 10
29.331000
 11
29.500000
 20
75.743000
 21
75.866000
  0
LINE
 10
29.500000
 11
29.691000
 20
75.866000
 21
75.951000
  0
LINE
 10
29.691000
 11
29.895000
 20
75.951000
 21
75.995000
  0
LINE
 10
29.895000
 11
30.105000
 20
75.995000
 21
75.995000
  0
LINE
 10
30.105000
 11
30.309000
 20
75.995000
 21
75.951000
  0
LINE
 10
30.309000
 11
30.500000
 20
75.951000
 21
75.866000
  0
LINE
 10
30.500000
 11
30.669000
 20
75.866000
 21
75.743000
  0
LINE
 10
30.669000
 11
30.809000
 20
75.743000
 21
75.588000
  0
LINE
 10
30.809000
 11
30.914000
 20
75.588000
 21
75.407000
  0
LINE
 10
30.914000
 11
30.978000
 20
75.407000
 21
75.208000
  0
LINE
 10
30.978000
 11
31.000000
 20
75.208000
 21
75.000000
  0
LINE
 10
31.000000
 11
30.978000
 20
75.000000
 21
74.792000
  0
LINE
 10
30.978000
 11
30.914000
 20
74.792000
 21
74.593000
  0
LINE
 10
30.914000
 11
30.809000
 20
74.593000
 21
74.412000
  0
LINE
 10
30.809000
 11
30.669000
 20
74.412000
 21
74.257000
  0
LINE
 10
30.669000
 11
30.500000
 20
74.257000
 21
74.134000
  0
LINE
 10
30.500000
 11
30.309000
 20
74.134000
 21
74.049000
  0
LINE
 10
30.309000
 11
30.105000
 20
74.049000
 21
74.005000
  0
LINE
 10
30.105000
 11
29.895000
 20
74.005000
 21
74.005000
  0
LINE
 10
29.895000
 11
29.691000
 20
74.005000
 21
74.049000
  0
LINE
 10
29.691000
 11
29.500000
 20
74.049000
 21
74.134000
  0
LINE
 10
29.500000
 11
29.331000
 20
74.134000
 21
74.257000
  0
LINE
 10
29.331000
 11
29.191000
 20
74.257000
 21
74.412000
  0
LINE
 10
29.191000
 11
29.086000
 20
74.412000
 21
74.593000
  0
LINE
 10
29.086000
 11
29.022000
 20
74.593000
 21
74.792000
  0
LINE
 10
29.022000
 11
29.000000
 20
74.792000
 21
75.000000
  0
ENDSEC
  0
EOF
